<?xml version="1.0" encoding="UTF-8"?>
<svg id="Livello_1" xmlns="http://www.w3.org/2000/svg" version="1.1" viewBox="0 0 105.99 138.4">
  <!-- Generator: Adobe Illustrator 30.2.1, SVG Export Plug-In . SVG Version: 2.1.1 Build 1)  -->
  <defs>
    <style>
      .st0 {
        fill: #1d1d1b;
      }

      .st1 {
        fill: #fff;
      }
    </style>
  </defs>
  <g>
    <path d="M-225.53,24.95l15.28.42c.53.1,1.06,1.43,1.11,1.96l.28.14,12.21-.7c-.1-2.61,1.24-5.02,4.04-5.17l-.14-1.66c-.26-.18-1.21.49-1.49.53-.31.05-.53-.14-.87-.06-1.06.25-3.07,1.96-4.1,1.89-3.64-.26-1.84-6.76,1.52-4.07.29-.41,1.11-.46,1.38-.66.19-.15.11-.54.26-.68.09-.07.47-.12.67-.23,1.21-.69,2.46-1.34,3.61-2.12l-.36-.77-1.28.13-.86-2.48c-1.65.61-1.79.18-2.27-1.29-.44-1.33-.59-1.37.69-2.05s3.85-1.78,5.18-2.21c2.55-.83,2.18.35,3.11,2.33l-.99.5c.31.63.93,2.07.63,2.71-.17.36-1.09.67-.41,1.26,2.23-1.21,4.6-2.33,6.61-3.87-.31-1.12.27-.84.84-1.24.16-.11.21-.35.47-.51.24-.15,2.47-1.27,2.61-1.3.1-.02,1.85-.03,1.96,0,1.14.23,2.02,2.06,1.19,3.03-.17.2-.48.28-.64.48-.21.26-.25.7-.57.97-.24.21-.63.27-.9.5-.67.58-.71,1.32-1.95,1.4-1.14.07-.55-.34-1.61.34-.47.3-2.91,1.58-2.92,1.96.38.67.68,1.94,1.13,2.51.24.29.52.18.76.35.15.11.89,1.87.95,2.14.11.59-.56.42-.62.61l.07.62c.16.24.97.08,1.34.19.94.29,1.16,1.69,1.22,2.52.02.24-.18.48-.09.81.07.25.72.71.93,1.03.43.68.54,1.55.43,2.34-.06.42-.38.83-.4,1.14-.05.7.6,1.65.41,2.91-.12.76-1.02,1.51-1.11,1.97-.17.9.54,2.51.06,3.4-.83,1.55-6.25,1.83-7.85,1.7-1.11,7.61-7.65,12.08-13.88,15.5-1.35.74-3.14,1.38-4.38,2.18-.14.09-.25-.02-.18.31,2.69,1.36,5.42,2.91,7.94,4.55.65.42,1.4.88,2.01,1.34,1.94,1.46,3.18,4.7,4.45,6.85.64,1.08,2.26,4.07,3.04,4.78.47.42,3.18,1.16,4.14,1.72,2.24,1.3,2.84,3.07,1.87,5.51.96.63,1.98,1.26,2.22,2.46.06.06.19.02.29-.09.33-.36.78-1.42,1.13-1.91,4.04-5.67,11.51-10.41,16.84-3.21.7.95.84,1.12,1.63,2,7.14,7.91-6.41,14.62-11.7,18.45-4.07,2.95-9.01,7.31-13.49,9.4-.82.38-1.7.59-2.52.97l11.1.06c3.01.48,7.16-.14,10.03.85.26.09.68.15.63.55-2.84.76-5.8.73-8.72.84-7.69.28-16.5.41-24.13-.58-.36-.05-2.93-.37-2.04-1.03,3.67-.75,7.44-.54,11.16-.7-1.33-.91-2.78-2.26-3.04-3.94-.09-.59.08-1.4-.06-1.89-.08-.27-.66-.65-.87-.95-.61-.87-1.04-1.88-1.26-2.92-1.25-.24-2.17,0-3.41-.64-2.32-1.19-1.96-3.72-1.62-5.92-1.71-1.18-3.43-.84-3.28-3.42.13-2.39.58-4.43.43-6.98-.04-.62-.25-2.66-.5-3.12-.32-.59-2.36-1.34-3.04-1.85-1.63-1.22-.75-2.21-.59-3.89-3.63-3.04-8.07-6.03-12.55-7.67-.69-.25-4.15-1.47-4.55-.74l-5.4,16.48c-.95,2.05-2.93,3.25-4.93,4.14-1.65,4.88-4.13,7.92-9.14,9.42-.64.19.16.34.35.5.79.65,1.16,1.59,1.69,2.08.49.45,1.79.92,2.51,1.54,2.14,1.85,1.76,3.01,2.54,5.27.08.23.49.56.67.87.57,1,.5,2.04.41,3.14,1.65-.03,3.31.03,4.96,0,3.29-.05,9.98-.49,12.88.37.25.07.87.25.66.61-.25.38-2.43.84-2.98.93-1.91.32-4.28.48-6.24.6-12.94.8-25.47.3-38.38-.56-2.58-.17-5.3.08-7.73-.99v-.4c3.73-.41,7.52-.75,11.29-.84-.83-3.09-1.39-6.28-1.68-9.49l-4.33,2.44c-7.11,2.98-13.94-.41-10.89-8.79,2.66-7.28,11.38-13.22,17.74-17.15,6.18-3.82,12.66-7.14,19.11-10.48-1.99.17-4.41.57-4.87-1.97-.28-1.53-.41-3.56-.57-5.15-.54-5.42-.7-10.88-1.08-16.31,1.28-1.89,2.87-4.02,3.52-6.23.04-.15.16-.47,0-.56-3.26,3.83-6.09,7.94-8.71,12.22-1.26.93-3.75-1.68-4.68-2.45-.26,0-1.82,2.69-2.05,3.11-.61,1.16-2.53,5.3-2.18,6.42.08.24,1.87,1.37,2.26,1.79,2.3,2.48,1.13,4.98,1.91,7.72.5,1.75,2.32,2.05,1.45,4.4s-4.53,1.87-5.92.21c-.74-.89-.92-2.02-1.05-3.14-2.33,2.72-.56,8.85-3.57,10.95-1.57,1.1-3.65.66-4.32-1.18-.65.28-1.19.82-1.91.94-1.76.3-3.23-.83-3.41-2.59-3.85-.47-4.63-4.3-2.41-7.13,1.12-1.42,3.24-2.49,4.17-3.65.34-.42.73-2.07,1.03-2.74,1.2-2.66,3.24-4.37,5.44-6.15,1.13-4.95,2.82-10.04,6.16-13.94-.74-1.31-1.7-2.82-.83-4.31,2.69-1.69,5.62-2.95,8.28-4.7s4.75-3.8,7.77-4.72c-2.3-1.65-4.7-3.33-6.09-5.87-.42-.09-2.08.92-2.61,1.15-2.54,1.13-5.84,2.59-8.66,2.47-3.76-.16-2.01-3.34-.51-5.08,2.17-2.53,5.33-4.4,8.18-6.07-1.72-5.87-1-11.99,3.2-16.61.37-.41,1.84-1.57,1.95-1.82.13-.3.1-.75.24-1.15.41-1.14,1.85-2.14,3.07-2.02.47.05,1.26.5,1.55.49.54-.02,1.91-.61,2.58-.76,8.45-1.85,15.64,1.01,19.17,9.08,2.21,5.04,4.99,13,3.23,18.35-.98,2.97-3.18,4.79-5.48,6.73ZM-224.28,2.62c-1.42-4.58-5.24-8.9-9.94-10.22-3.59-1.01-7.99-.36-11.36,1.13-1.76.77-2.77,1.22-3.5,3.06-1.75,4.41-.73,8.9-.31,13.43-.21-.03-.31-.47-.38-.66-1.49-3.63-1.56-7.92-1.01-11.76-3.65,4.22-4.37,10.69-1.74,15.62,3.81-3.02,8.28-5.1,12.9-6.57.13-.15-.53-3.11-.55-3.68-.18-5.16,5.97-7.67,9.9-4.6,1.52,1.19,2.34,2.96,2.82,4.79l3.2-.55ZM-230.14.94c.16-.14-.7-.94-.83-1.05-3.03-2.51-7.87-.68-7.68,3.42,2.77-.96,5.52-2.29,8.51-2.37ZM-228.88,3.46c-.13-.4-.18-1.17-.63-1.26-.89-.17-2.7.32-3.62.57-.69.19-5.13,1.63-5.22,2.02l.12,1.03c3.06-.98,6.15-1.96,9.35-2.37ZM-223.6,4.31c-5.18.46-10.24,1.76-15.13,3.47-3.73,1.31-8.16,3.22-11.36,5.53-.42.31-1.88,1.29-1.81,1.77.05.33.65,1.71.84,2.11,3.97,8.65,12.48,11.27,21.23,8.01,6.33-2.36,9.63-7.12,8.44-13.96-.42-2.4-1.37-4.67-2.21-6.93ZM-189.4,6.95c-.34-.25-5.47,1.79-6.07,2.37l.15.84,5.85-2.39.21-.22-.14-.6ZM-176.69,6.95l.63,1.25c.53-.47-.03-1.26-.63-1.25ZM-176.97,9.04l-.83-1.75-1.12.36.7,1.81,1.25-.42ZM-179.9,8.34l-.68.36.55,1.59c.31.02.63-.09.82-.35l-.69-1.61ZM-181.58,10.58l-13.1,7,.26,1.23,12.83-7.19.27-.29-.26-.75ZM-189.67,12.81l-1.05.55.21.5.98-.37-.14-.69ZM-262.1,19.92l7.45-4.76.23-.47c-.12-.45-1.02.15-1.26.27-1.26.65-2.86,1.71-4.01,2.55-.28.21-2.73,2.07-2.41,2.4ZM-184.55,15.34c-.9.24-.24,1.85.12,2.34l1.02-.47c-.42-.37-.5-2.04-1.15-1.87ZM-185.9,18.11l-.49-1.81-2.3,1.12c.58,1.29.67,2.88.71,4.3.4.04,1.15.67,1.45.67.33,0,1.2-.73,1.74-.51,0-.72-.73-.7-1.1-1.21-.25-.35-.91-2.09-.66-2.43l.64-.13ZM-182.27,18.11l-2.92.85.13.82,2.93-.84-.14-.84ZM-195.53,19.09l-.21-.42c-.56.44-1.78.35-1.6,1.26l1.81-.84ZM-198.32,20.34l-.41-1.34-.84.23c.18.78.34,1.31,1.25,1.11ZM-182.55,20.48c-1.58.18-1.83,1.29,0,.77v-.77ZM-185.34,23.14c-.07.06.52,1.66.57,1.73.34.49,2.24.05,2.78-.13.6-.2,2.81-1.19,1.89-2.02l-.42-.15-4.82.57ZM-192.59,25.38l1.18-.42c.6.76.5,1.75,1.02,2.6.94,1.52,3.71,2.39,3.94-.02.18-1.9-.27-4.19-2.48-4.5-.78-.11-2.37-.11-3.16-.02-1.81.21-2.84,1.5-3.01,3.27-.05.53-.13,1.86-.1,2.35.02.23.57,1.56.16,1.62-.92-.04-.95-1.7-1.53-1.81-4.41.35-8.8.86-13.24.69-.33.08-.83,2.94-.63,3.41l.11.17c4.92.16,9.86.06,14.73-.65.73.06.96.97,1.39,1.41.86.88,2.45.95,3.56.62.19-.06.74-.29.84-.49l-.71-.08-.4-2.43c-.13-.12-2.31,1.86-2.51.9-.04-.19,1.24-1.57,1.42-1.92.94-1.76-.61-2.95-.58-4.69ZM-179.94,25.39c-.34.06-1.53.83-1.61,1.19-.43,1.91.73,3.06,2.27,1.57.87-.84.42-2.95-.67-2.77ZM-182.97,26.62l-1.75.27c-.08.79-.04,1.51-.41,2.24-.55,1.1-1.26.66-1.19,2.3.05,1.19.49,2.48.42,3.7,1.82.1,3.67-.21,5.3-1.05-1.56-.38-2.25-1.45-2.08-3.05.05-.42.41-1.13.39-1.41-.01-.24-.57-.92-.66-1.42s0-1.05-.03-1.57ZM-240.88,27.74c1.43,4.83,10.17,5.03,9.63-.98l-.92,1.52c-1.71,2.07-4.03,2.04-6.16.6-.84-.57-1.24-1.36-2.55-1.15ZM-211.9,27.49c-1.05.16-1.86,3.34-2.01,4.27-.29,1.81-.42,4.19.31,5.89.41,0,.43-2.93.49-3.41.28-2.26.79-4.46,1.67-6.56-.15-.2-.21-.22-.46-.18ZM-217.3,44.63c.15-.13-1.52-2.52-1.7-2.84-1.81-3.24-2.91-6.85-4.2-10.32l-.8-1.78c.16,4.07,1.21,8.41,3.43,11.85.74,1.15,1.9,2.76,3.27,3.08ZM-178.65,29.69c-.11-.08-2.31.79-2.45.96-.49.57-.45,1.82.44,1.96,1.58.25,2.58-1.54,2.01-2.92ZM-189.25,35.41c-1.71.5-3.76,1-5.29-.22-.54-.43-.68-1-1.2-1.32-4.25.55-8.55.6-12.84.56-.45.09-.48,1.09-.66,1.57-.5,1.33-1.3,2.83-2.44,3.7-2.47.41-4.55-.53-6.82-1.08-.22-.05-.22-.02-.19.19.11.85,1.3,2.61,1.88,3.28,2.31,2.65,8.07,5.23,5.87,9.49-.15.3-.76.83-.57,1.11l5.01,2.62c3.27-1.54,6.54-3.09,9.57-5.07,4.3-2.82,8.7-7.03,8.81-12.53-.05-.19-.71-.13-.82-.25-.22-.24-.09-1.66-.31-2.07ZM-179.76,36.39l-.29-.97c-1.84.64-3.83.94-5.77.97-.17.02-.14.59.15.68.2.06,1.64.17,1.94.17,1.38-.02,2.65-.6,3.98-.85ZM-251.91,44.49c-.81-3.65-3.55-7.12-7.26-8.09,1.36,1.1,2.69,2.16,3.84,3.49.7.81,1.59,1.95,2.17,2.86.29.45.58,1.36.82,1.66.13.16.26.07.43.09ZM-269.77,65.14c-1.23,1.91-3.2,3.93-3.57,6.27-.17,1.12-.22,2.82,1.28,2.93,2.02.15,1.97-3.4,2.46-4.78.17-.48,1.49-3.16,1.85-3.17.16,0,.21.31.2.47-.06,1.32-.88,3.24-.97,4.76-.07,1.17.04,3.94,1.92,3.17,1.6-.66,1.61-5.07,1.89-6.62.3-1.67.77-3.36,1.85-4.71.44-.55,2.08-2.08,2.61-.96.23.5.13,2.43.28,3.21.29,1.57,1.32,2.66,3.04,2.14,1.43-.44-.09-1.71-.4-2.26-1.38-2.41-.01-6.15-2.11-8.21-.79-.77-2.86-1.47-2.93-2.52-.13-2.07,1.99-6.91,3.04-8.8.26-.48,1.63-2.32,1.68-2.52.03-.12.02-.22-.05-.32l-1.96-2.23c-1.92,2.9-3.57,6.11-4.68,9.41-.31.93-.95,3.98-1.33,4.53-.22.3-1.35.98-1.74,1.33-.99.91-2,2.3-2.67,3.47-.63,1.09-1.25,3.22-1.87,3.99-1.03,1.29-2.92,1.93-4.08,3.74-1.01,1.58-1.39,3.69.93,4.07.64-2.23,2.31-4.17,4.06-5.64.18-.15,1.1-.9,1.26-.76ZM-241.86,61.51c.11.1.56-.27.68-.36,8.57-6.41,17.27-10.58,28.14-11.35.25-.02.45.04.62-.22-1.48-.88-3.68-.65-5.37-.49-7.33.69-17.88,5.1-22.82,10.67l-1.25,1.75ZM-217.58,57.81c.11,1.04-.08,2.22,0,3.28,1.99-.64,4.01-1.47,6.14-1.39.06.38-.17.55-.43.76-1.35,1.07-3.4,1.83-4.73,3.01,2.32.87,4.57,2,6.69,3.29.69.42,1.57.93,2.17,1.46.11.1.41.32.01.27l-4.06-1.25-.07.28c2.32,1.16,4.43,2.75,6.42,4.4.1.07.2.08.32.05.22-.06,1.05-1.24,1.29-.83.08,1.7-.61,3.44-.28,5.17l2.22,1.25c.37-.08.69-1.98,1-2.36.16-.19.25-.16.48-.15.61,4.86.74,9.77.42,14.65.3.06.32-.15.44-.32,1.91-2.63,2.86-4.95,5.49-7.21.22-.19,1.56-1.31,1.74-1.12.03.24-.02.44-.11.66-.39.93-1.36,2.19-1.87,3.16-.59,1.12-3,6-2.83,6.95.07.38.59.77.62,1.18s-.3.65-.38,1c-.47,2.08.05,3.77,2.47,3.66-.05-1.28.92-2.32,1.68-3.27,1.46-1.8,3.65-3.93,5.37-5.52,1.85-1.71,3.86-3.59,6.35-4.25-.39-1.89-2.51-1.35-3.88-.94s-3.63,1.82-4.82,2.71c-.44.33-2.17,2.08-2.32,2.13-.19.07-.6-.13-.85-.06.85-3.7,4.55-7.03,8.31-7.67.75-.13,1.42.3,1.68-.83.76-3.22-4.13-2.82-5.46-4.05-.54-.5-1.86-2.89-2.32-3.68-1.17-1.97-2.12-4.09-3.3-6.05-1.61-2.67-5.45-4.63-8.16-6.21-3.16-1.84-6.6-3.68-9.86-5.35-.76-.39-3.53-1.93-4.13-2.02-.42-.06-2.94.53-2.99.77.64,1.35,1.38,2.96,1.53,4.46ZM-220.65,62.21c.55-.36,1.73-.25,1.82-1.04.14-1.18,0-2.96-.22-4.13-.12-.64-.89-3.3-1.54-3.35-.24-.02-2.16.64-2.16.77,1.77,2.2,2.03,5.02,2.09,7.75ZM-223.74,54.83c-4.73,1.52-9.22,3.91-13.38,6.6-1.1,5.92-2.61,11.79-2.81,17.84l-.46.38c-1,0-1.09-3.59-1.2-4.32-2.73-.82-3.06,3.41-2.93,5.23.07.92.51,1.78.42,2.72-.82.12-1.32-.95-1.56-1.58-.33-.85-.46-1.7-.39-2.61-.76.11-1.29,1.21-1.56,1.86-1.04,2.47-.45,4.36-.04,6.79.17,1.02-.66.25-.98-.14-1.36-1.72-1.18-4.38-.78-6.41-3.84.6-3.16,5.65-1.91,8.26,2.07,4.33,6.44,4.56,10.56,3.18.03-.2-.25-.2-.39-.23-1.59-.44-4.05-.8-4.49-2.69,2.46.23,5.28-.22,7.35-1.64.12-.08.26.02.18-.31-1.12.31-2.45.08-3.53-.31-.32-.12-2.45-1.1-1.92-1.64,2.9.18,5.75-.48,8.48-1.36,1.43-.46,4.04-1.35,4.84-2.7.63-1.07,1.44-4.01,1.9-5.36,1.42-4.2,2.62-8.48,4.03-12.68l2.36-1.16c.15-2.69-.41-5.4-1.81-7.7ZM-240.19,67.65c-.2-.04-.34.05-.52.11-1.88.69-4.69,2.36-6.55,3.36-8.28,4.44-25.83,13.93-28.03,23.61-.6,2.62,0,4.91,2.75,5.76,2.91.9,5.86-.29,8.39-1.74.33-.19,2.22-1.4,2.34-1.57.21-.29.15-1.02.14-1.41-.08-2.07-.78-6.12.35-7.87.18-.28.72-.74.99-.96,1.6-1.25,4.52-2.59,5.9-3.87.32-.3.4-.91.64-1.31,1.05-1.73,2.78-2.82,4.86-2.68.62-1.14,1.38-1.91,2.75-2,.55-2.73,2.05-4.35,5.01-3.57l.98-5.86ZM-162.32,79.65c-2.94-4.17-7.23-2.94-10.54,0-2.65,2.35-4.88,5.84-4.81,9.49,1.76-1.27,3.13-3.07,4.74-4.54,2.92-2.66,6.5-4.98,10.61-4.95ZM-158.97,84.54c-.06-2.58-2.29-3.27-4.52-3.05-5.4.52-12.99,9.21-16.9,12.97-1.95,1.87-7.8,6.63-8.79,8.65-.46.95-.88,2.47.07,3.21.86-1.74,2.56-3.26,3.98-4.61,4.81-4.6,11.34-10.48,16.83-14.15,2.73-1.83,5.9-3.85,9.34-3.01ZM-180.56,86.81c-.44.37-.94,2.1-1,2.7-.05.55,0,2.43.74,1.44.23-.3,1.05-3.56,1.05-3.99s-.52-.38-.79-.15ZM-184.36,92.91c.37.34.81-1.41.86-1.59.3-1.17.46-2.52.54-3.72-1.45.11-1.83,4.91-1.39,5.3ZM-236.14,108.75c.1-.6-.07-1.4,0-2.02-1.39.37-2.82.58-4.26.7-3.43.28-12.82.48-15.55-1.47-.65-.47-1.26-1.38-1.2-2.15.27.25.61.61.98.69.15.03.44.07.34-.2-.24-.63-1.47-1.34-1.64-2.12-.46-4.76-1.33-9.49-1.43-14.28-1.27.17-1.2,1.51-1.26,2.57-.23,3.9.45,12.25,1.89,15.84.69,1.73,1.16,2.44,2.97,3.03,4.3,1.41,13.68,1.16,18.23.45.5-.08.84-.57.92-1.04ZM-248.7,95.29c-1.69-.65-3.37-1.08-5.06-.11-.77.44-.57,1.38.08,1.36l4.97-1.25ZM-243.4,97.52c-2.04-.71-4.08-.7-6.17-.24-.68.15-3.52,1.01-3.77,1.53s.15.83.65.8c.46-.03,2.15-.91,2.8-1.12,2.22-.71,3.73-.75,6.01-.83.17,0,.52.1.49-.14ZM-245.8,99.79c-2.78.26-7.46,2.27-8.91,4.77-.44.75.67.74,1.24.87,3.85.84,11.55.71,15.43-.11.53-.11.82-.08.78-.73-.28-3.91-5.34-5.09-8.53-4.79Z"/>
    <path d="M-163.13-4c.32.16-.1.46.63.47.13-.37-.25-.22-.28-.37-.04-.19.02-.41,0-.61h.48s.15.42.15.42c.1.16.43-.13.35.27l.23-.28h.47s-.07.28-.07.28c-.4-.35-.3.27-.77.14l.38.27c.22.08.15-.22.28-.26.32-.09.71.14.74-.42h.13c-.05.3.16.31.42.28l-.35.42-.07-.28c-.32.27-.44.29-.83.14l.42.28-.28.56-.35-.55c-.41.25-.18.83-.77.7l.98.14c-.16.41-.75.34-1.05.14l-.07.28c.78-.2.9.53,1.54.42.13.56-.53.1-.56.14v.56s.56-.21.56-.21l-.14.63-.42-.28-.14.28-.28-.28.28-.21-.28-.35-.14.7-.42-.28-.14.42-.14-.28c.03.43-.2.89,0,1.29.08.16.33.03.27.24l-.54-.12-.22.4c-.23-.3-.55-.31-.91-.28l.14.48-.56.07.14.84c-.51-.05-.68-.55-1.24-.26l-.1.4c-.66-.16-.72-.1-1.21.29-.21.16.03.37-.52.13l.14.7-.21-.42c-.42.2-.67.82-.72.84-.1.04-.3,0-.46.07-2.04.81-4.02,1.82-6.14,2.44-.06-.28.06-.37.2-.56,1.1-1.5,3.55-3.77,4.97-5.08.22-.21,1.14-1.24,1.27-1.32.1-.06.28.13.37.1.05-.02.54-.66.45-.81l.27.14c-.38-.83.75-.67.94-.87.09-.1,0-.42.26-.51.24-.09.62.02.89-.02.1-.44-.4-.14-.28-.63l.35.07-.07-.42.28.56.14-.28.42.28-.14-1.12c.52.05.68.07.91-.42l.41.5Z"/>
    <path d="M-228.79,20.47c-.88.69-1.87,1.29-2.84,1.84-3.13,1.78-7.39,3.64-11.02,2.32-2.62-.96-2.34-3.36-2.05-5.69h-1.05s-.07-.28-.07-.28c.59-.22.92-.61,1.59-.72,1.27-.21,3.99,1.1,5.38,1.49,3.18.89,6.75,1.38,10.05,1.05ZM-233.54,21.73c-3.3-.31-6.66-.71-9.7-2.09l-.2,1.81,3.48.91c-1.12.19-2.26.04-3.35-.21,1.25,2.41,5.57,1.54,7.63.72l2.14-1.14Z"/>
    <path d="M-232.28,13.08c.33.19.45.84.43,1.18-.12,1.77-2.37,1.32-3.5.91.27,4.48-5.68,3.19-4.47-.84l-5.49-.73c-.51-.28-.18-1.32.07-1.76.4-.24,4.39.58,5.14.74,1.87.39,4.79,1.51,6.48,1.61.99.06,1.46.02,1.33-1.12Z"/>
    <path d="M-229.63,14.05c-1.88,1.35-2.04-.8-1.95-2.23.32.15.46,1.32.97,1.05l4.88-5.46c.28-.13,1.13.74,1.09,1.1-.05.53-1.38,1.33-1.49,1.73-.04.14.56,1.52.55,2.21-.04,2.53-2.96,4.52-4.06,1.6Z"/>
  </g>
  <g>
    <path d="M-196.19,253.5c.03-.22.25-.89.42-1.05.33-.3,1.66-.56,1.89-.86.36-.46-.17-1.82-.2-2.38-.82.78-2.37,3.18-3.66,1.99-.61-.56,0-1.75.1-2.48.44-3.05.15-4.94-.34-7.91-.14-.86.02-1.94-.91-2.48,0,1.21-.29,2.58-.92,3.62-1.07,1.75-1.5,1.03-2.8.01.72-2.05.84-4.13,1.8-6.13,1.11-2.33,1.72-1.74,3.2-.06.25-.96,0-2.09.14-3,.06-.35,1.09-2.53,1.36-2.61.47-.16,1.11.39,1.58.5.12-.78-.24-1.43-.38-2.17,1.38,0,2.15,1.8,2.49,2.94,1.3,4.32,1.61,9.22,2.89,13.48.29.98,1.42,3.02,1.5,3.75.1.86-.65,2.03-.48,3.03.21,1.19,1.66,1.77,1.37,3.3-.12.62-.8,1.07-.65,1.6.05.18.82,1.48.95,1.62.28.29.73.35,1,.54,1.01.72,1.98,1.55,3.04,2.21.46.28,1.27.3,1.46.98-.55,1.2-1.52-.15-2.14-.29-1.03-.23-2.18.43-3.11-.16-.02.37.29.61.56.78l1.1.24c-1.28.19-2.57-.19-3.84.26.41-.71.95-1.25,1.15-2.05-.51-.07-1.02.7-1.23.74-.09.02-1.27-.19-1.31-.24-.04-.05-.02-.52-.16-.8-.21-.41-.97-.85-1.2-1.34l-1.09.24c.36.46,1.14.69,1.02,1.41l-.76-.13c-.15.63-.29,1.41-.97,1.66-.41.15-1.09.03-1.34.39.45.27.84,0,1.22,0,.64.02,1.67.18,2.24.44.68.31,2.01,1.52,2.67,1.68s1.07-.08,1.61-.07c1.15.02,1.54.38,2.62-.45.12-.09.79-.75.83-.84.09-.2,0-.55.14-.65.19-.15,1.25-.16,1.52-.11.33.06.49.4.84.38l-.38-.45c.19-.26.41-.2.68-.18,1.53.13,1.78,1.82,1.49,3.06,1.05-.12,2.12.12,3.14.14s2.1-.19,3.07-.14c2.18.11.15.68-.65.77-2.02.24-4.71.29-6.78.38-2.84.12-5.65-.09-8.46-.24-5.79-.31-11.38-.19-17.12-.46-1.68-.03-3.74.25-5.38.07-.72-.08-.43-.54.06-.71,1.29-.44,3.88-.17,5.31-.18,2.93-.03,5.84-.05,8.77-.13.04-.4-.29-.69-.32-1.08-.04-.58,0-2.12.06-2.69.06-.46.4-.82.3-1.31-.31-1.61-1.21-2.17-2.08-3.29-1.57-2.02-.46-2.42-.93-4.19-.09-.35-.99-1.47-1.24-1.96-.94-1.86-2.14-5.27-2.41-7.31-.08-.58.04-1.28-.06-1.73-.11-.48-.72-.71-1.05-1.12-1.29-1.62-.65-3.33-1.5-5.03-1.43-1.18-3.12-2.19-4.52-3.41-1.23-1.07-2.09-2.19-3.48-3.17-1.68-1.2-4.64-2.89-6.5-3.86-.48-.25-1.02-.42-1.52-.62-.18.03-1.34,1.56-1.61,1.84-4.05,4.06-7.78,7.09-10.52,12.38-4.33,8.36-.92,16.33,7.95,19.08,2.96.92,10.43,1.64,12.4,3.21,1.29,1.02,1.39,2.57,0,3.56-3.26,2.33-14.04,1.2-18.21,1.09-4.98-.13-10.21-.21-15.12.09-.79.05-.37.1-.82.22-1.51.41-3.17-.33-4.75-.15-.34.04-.76.27-1.19.33-.68.09-1.62-.25-2.3-.3-1.78-.13-3.49.08-5.24.21-1.05.08-2.21-.22-3.33-.14-.53.04-1.04.26-1.65.27-2,.02-3.84-.49-5.88-.24-2.4.29-4.53.73-7.06.5-.86-.08-2.67-.27-3.44-.53-.72-.24-.53-.7.18-.63-.3-.99-.23-2.09.64-2.76l.77.2c-.35.87-.03,1.34.86,1.51.8.15.78-.22,1.28-.45,1-.46,2.27-.29,3.23.22.23-.51-1.09-1.01-.89-1.28.56-.13.95-.59,1.53-.71.75-.15,1.47.09,2.18-.31-.47-.8-1.54-.91-2.36-1.15-.14.15.23.21.31.36.74,1.32-2.07.87-2.69.61-.92-.39-.17-1.26-.25-1.35-.89.38-1.63,1.18-2.68,1.09l1.66-1.09-.51-.13c.83-.27,1.44-.92,2.19-1.33.68-.38,2.48-1,2.98-1.5.34-.33.15-.76.36-.98.14-.15.68-.19.9-.31.41-.23,1.33-2.24,1.37-2.74.04-.59-.47-1.25-.51-1.91-.11-1.94,1.43-2.38,2.55-3.46.84-.82,1.68-2.22,2.24-3.26.38-.73.52-1.93,1.36-2.29l.06.4c-.78,2.55-2.2,4.85-3.36,7.24-.28,1.08.5,1.94.48,2.98-.31-.24-.56-.61-.85-.87-.15-.14-.59-.59-.81-.47.41.4.96,1.88,1.59,1.86.09,0,.09-.27.28-.37.89-.44,2.72-.28,3.75-.41.4-.34-1.8-.9-1.92-.96-.73-.34-.85-1.08-.49-1.78.28-.55,1.99-1.18,2.61-1.62,1.24-.87,2.24-2.29,3.39-3.26.75-.64,1.74-1.17,2.49-1.86.31-.28.47-.63.84-.83.03-.27,0-.34-.26-.32-.09-.14.71-.34.19-.38-1.37.32-2.7,1.04-4.14.87-.52-1.36.93-2.22,1.86-2.9,1.39-1.03,3.17-2.06,4.73-2.82.91-.44,2.04-.57,2.73-1.36-.9-.56.88-1.69,1.42-2.04,2.97-1.88,6.67-3.27,9.75-5.09.55-.32,3.25-2.05,3.48-2.4.06-.1.08-.14.06-.26-1.78.26-3.91,1.88-5.7,1.67-.55-.07-.51-.23-.24-.64,1.47-2.24,7.01-4.74,9.17-6.66l.22-.32c-1.21-.45-2.75-.59-3.93-1.06-.1-.04-.98-.52-1.03-.56-.02-.02-.03-.4-.1-.49.35-.32.85-.28,1.29-.26,1.91.09,4.25.7,6.14.52.47-.04,1.26-.29.51-.65-.59-.29-1.79-.38-2.48-.59s-1.93-.7-2.57-1.01c-1.4-.69-1.93-1.98.21-1.36.99.29,2.66,1.21,3.55,1.32s1.93-.06,2.82,0c1.3.07,3.18.82,4.02-.57-.44-.05-.92.38-1.36.41-1.22.09-1.68-.68-2.63-1.02-.5-.18-1.17-.27-1.7-.34-2.98-.43-6.1-1.35-8.92-2.47-.5-.2-1.11-.66-1.72-.7-.18,0-3.26.91-3.5,1.04-.67.37-1.1,1.27-1.65,1.8l-.33-.06c-.3-1.37.18-1.95.96-2.88.12-.14.14-.39.25-.52.56-.63,2.58-.41,3.4-.44.43-.01.75-.22,1.21,0-.27-.37.25-.79.6-.87,1.38-.31,3.39.35,4.26-.66l.19.24.84-.24c-.81.03-2.2-.75-2.9-.74-.21,0-.48.27-.77.32-.64.12-3.73-.04-4.42-.15-.36-.06-1.1-.18-1.21-.55-.56-1.8,2.98-.3,3.81-.68l-1.71-.66c-.99-.61-1.61-.71-1.33-2.06.13-.64,1.34-1.64.29-1.98-.75.97-2.06,1.15-2.41,2.43l-.21,5.6c-.4-.57-1.17-.89-1.27-1.61-.06-.41-.07-1.09-.08-1.53,0-.24.17-.49.15-.64-.02-.2-.69-1.12-.79-1.59-.1-.51-.1-1.02.04-1.51.42-1.43,1.97-2.59,1.8-4.3-.1-1.03-.94-1.85-1.23-2.87-.22-.77-.23-2.1-.51-2.81-.19-.47-1.47-1.37-1.88-1.96-.45-.63-.75-1.51-1.17-2.16s-1.06-1.19-1.44-1.88c-1.58-2.84-2.06-5.68-1.37-8.88.12-.55.79-2.47,1.15-2.81.1-.09.24-.24.32-.06-.49.53-.3,1.19-.39,1.79-.04.24-.21.42-.24.65-.12.97-.28,3.85-.07,4.67.54,2.12,4.51,3.54,6.4,4.09-.21,1.32-3.1.8-2.22,2.48.43.84,1.64,1.57,2.32,2.12,2.05,1.7,3.79,3.14,6.1,4.55.26.16.51.33.71.56.32-.37.56-.6,1.09-.51-.67-2.36.34-5.02,1.64-7,.17-.25.78-1.24,1.11-.81.54.7-.72,4.34-.45,4.6l.55-.03c.73-.77,1.62-1.37,2.26-2.22.88-1.15,2.96-5.5,4.04-5.81.26-.03.16.01.19.19.23,1.67-.18,3-.77,4.54l1.73-.51c.16-.31.15-.67.3-.98.31-.69,2.44-4.78,2.84-4.96.21-.09.42-.08.64-.07.31,1.95-.67,3.56-1.15,5.37l1.72-1.66,1.22-.77v-.19c-1.45-1.05-.32-3.22.19-4.54-.01.61.41.79.63,1.16.54.91.99,1.91,1.73,2.68-.05-.5-.56-2.08-.32-2.44.35-.53,1.95,0,2.5,0,.13-.13-1.14-2.82-.43-3.05l.63.11c.43,1.36.93,2.72,1.46,4.05.05.13-.07.22.2.18.98-1.04,1.57-2.18,3.2-2.17.43,0,.82.31,1.03.33.23.02,2.14-.77,2.45-.94.69-.38,1.68-1.51,2.34-1.64.95-.19,2.73,1.82,3.46.4,0-.69-3.29-1.29-3.44-2.32-.03-.18.14-.27.28-.33,1-.46,2.89,1.25,4.04,1.04l.35-1.07c-.25-.51-2.85-.97-3.5-1.31-.26-.14-.45-.27-.43-.6.07-.86,2.12.13,2.57.26.48.13,1.71.6,1.89-.03.27-.91-.08-1.09-.74-1.51l.38-.32c-1.57.75-3.14-.65-4.68-1.02l.07-.58,1.79-.58c-.11-.78-.83-.2-1.22-.13-.94.15-1.27-.36-1.5-.35-.06,0-1.04.35-1.14.4-1,.51-3.77,3.77-4.96,4.76-.67.56-1.38.92-2.04,1.42-.57.43-1.43,1.58-2.12,1.57-.74,0-.7-.43-1.76.05-.72.32-1.17.55-1.98.84-.23.08-.49.35-.63.38-.27.04-.69-.29-1.01-.34-1.38-.21-2.16-.01-2.99,1.08-.67.87-.26,1.26-1.6,1.34-1.22.08-2.22-.33-3.21.76-.16.18-.31.6-.34.62-.18.12-1.36.14-1.74.24-2.46.64-4.29,3.17-5.2,5.42-.58,1.42-.78,4.31-2.82,4.23-.77-.03-.74-.53-.89-1.16-.3-1.27-.14-2.39.6-3.5.35-.53,1.01-.93,1.39-1.43.57-.74,1.02-2.37,2.01-2.59.5-.11.84.03,1.28.07.12.01.4.11.29-.16-.03-.07-.67-.7-.77-.76-.9-.57-2.61.11-3.64.19-1.18.09-2.34-.18-3.52-.13l2.43-1.15c.32-.45-1.46-.59-1.66-.58-.7.04-1.35.45-2.07.38-.39-.04-2.41-.54-2.71-.71-.71-.41-.08-.98.45-1.18,1.24-.46,2.79-.33,4.06-.14.72.11-.09-.43-.34-.55-1.41-.71-2.12-.52-2.97-2.28l-2.05-1.27c.22-.33.5-.1.76,0,.71.26,1.39.77,2.11,1.08,1,.43,2.15.56,3.01,1.28l-1.09-1.4c-.05-.15-.61-1.27-.25-1.28,2.04,1.12,4.11,1.93,5.69,3.71-.08-1.09-.87-2.52-1.73-3.2s-1.98-.93-2.44-2.17c-.72-1.97-.96-6.21-.4-8.22.07-.26.22-.73.32-.96.08-.18.02-.2.29-.16-.21.41.12.79.13,1.21.01,1.12-.47,2.65-.51,3.84-.05,1.57.53,3.08,1.02,4.54.69.03,1.02-1.96,1.36-2.04l5.04,2.42c-.63-1.28-2.03-1.86-3.05-2.77-.63-.56-2.51-2.5-2.86-3.15-.06-.11-.57-1.27-.17-1.11.53.21,1.6,1.5,2.2,1.9s1.17.52,1.83.66l-1.92-2.94,3.07,1.34c-.24-.89-1.1-1.15-1.73-1.72-.33-.3-.72-.69-1.02-1.02-.91-1.01-1.75-2.3-2.24-3.58.15-.15,1.49.98,1.75,1.13,1.39.79,3.22,1.21,4.77,1.56l-3.75-1.94-1.49-1.64c2.33.33,4.93-.68,7.16-1.34-2.06.04-4.4.1-6.42.61-.64.16-.94.63-1.68.35-.31.56-.87,1.3-1.42,1.66-.28.18-.59.18-.82.33-.17.11-1.02.96-1.16.82-.15-1.94.73-2.73,2.43-3.39-.39-.45-.66-1.13-.64-1.73-.67.28-3.33,1.03-3.29-.3.03-.85,2.29-2.9,2.76-3.76-1.14-3.93-.32-7.34,3.2-9.58,2.99-1.91,8.48-2.31,11.3.08.1.08.97,1.02.99,1.09.07.19-.49.36-.62.4-.68.2-1.57.05-2.07.55l3.39.13c.23.04.83.8.9,1.02.04.14.26,1.12.26,1.22,0,.14-.15.57-.27.58-.37-.17-.78-.71-1.16-.76-.26-.04-2.29.1-2.66.14-.81.09-2.77.61-3.63.85-1.32.36-2.45,1.14-3.74,1.57l.71.25c.16.56-.11.91-.18,1.36-.06.34-.27,2.18-.39,2.29-1.91.8-1.46-1.87-3.27-1.84-.65.01-1.62.88-1.59,1.57.02.43.44,1.06.5,1.43.1.6-.1,1.03.24,1.68.3.59.75.69,1.16,1.01.21.16.26.56.59.56,1.23-.4,2.52-.58,3.75-.99,2.51-.83,4.9-2.22,7.55-2.81.63-.14,2.89-.51,3.35-.23.63.37-.25,3.53-.27,4.35-.02.72.39,1.49.41,1.92.02.39-.23.61-.23.87s.21.6.22.92c.04,1-.03,2.01,0,3l.58-1.53c.22-.87.17-1.58-.07-2.44.4.02.82-.02,1.22,0,2.74.13,7.11.73,9.63,1.76.88.36,1.81,1.04,1.83,2.08,1.03-.18,1.53,1.06,2.46.88.51-.1,1.07-.47,1.5-.74l-.38-.38,2.65-1.06.29-1.33-.27-.54-.18-.02c-.65,0-2.16,1.02-2.66.88-.59-.16-.91-1.42-.16-1.65,1.91-.62,3.77-1.5,5.67-2.14.46-.16,1.31-.6,1.44.17.21,1.25-2.01,1.29-2.16,1.81-.06.21.1.42.08.6-.02.15-.17.29-.2.43-.1.61.55.78,1.04.77l4.83-1.69c.22-1.1.54-1.81,1.66-2.18-.26-.32-.29-.73.09-.96s2.47-.76,2.82-.34l1.18,3.36c-.27.34-.19.76-.31,1.09-.36.98-1.05,1.11-1.98,1.47-.38.01-.54-.44-.61-.45-1.12-.18-4.4,1.7-5.67,1.92l.27.89c.33-.06.71-.22,1.06-.1.23.08.26.45.47.56.55.28,2.28.05,2.05,1.28-.17.92-1.19-.39-1.71-.29l-2,1c-.01.06,0,.12,0,.18.01.16.42,1.24.5,1.3.18.12.59-.07.97.04.79.24,1.24.98.86,1.77-.21.44-.52.12-.67.41.51-.05,1.63-.02,1.93.47.1.16.08.41.15.58s.27.29.32.44c.22.7.29,2.21-.1,2.85.47-.01,1.68.48,1.85.9.1.23.1,1.48.03,1.7-.14.39-.69.39-1.05.47l-6.33.26.13,7.55h4.03c.06,0,.73-.1.7-.25h-.89s-.15-4.16-.15-4.16l-.23-.12c0-.12.2-.01.24-.12.11-.36-.33-2.44-.18-2.63l3.7-.26c.38.09.16,6.08.21,6.85.06.84.7,1.56-.83,1.73-1.32.15-2.78.02-4.1.24-.68-.15-2.88.06-3.25-.44-.32-.44.15-2.09-.26-2.69l-3.08-.44c.18,1.65.24,3.18.8,4.76.93,2.61,3.06,4.54,4.26,7,1.96,4.01,1.65,9.17-1.47,12.48-.41.44-1.43,1.17-1.67,1.53-.07.11-.17.14-.12.32.88.36,1.56,1.03,2.22,1.68,2.85,2.82,5.97,7.35,7.94,10.87.09.16.25.28.2.5-.73-.09-.85-.84-1.17-1.32-2.74-4.06-5.24-7.2-9.32-9.99-2.32-1.58-3.32-1.97-6.2-2.19-.11,0-.22-.17-.26-.17-.13,0-.38.79-.83.62.07.38.94.19,1.02.26.05.21-.07.26-.19.38-.43.43-2.27.94-2.96,1.26-1.52.7-2.97,1.59-4.52,2.2-.02.23.43.13.58.13,1.32-.03,2.74-.43,4.08-.51.7-.04,3.9-.15,4.23.37.17.18-.2.52-.33.58-.75.33-2.61.2-3.58.38-1.16.22-2.35.77-3.55.93l-1.43.68c2.52.41,5.08.48,7.55,1.21.28.37.16.55-.19.72-.23.11-2.15.34-2.56.36-.87.05-1.76-.03-2.63,0-.02.14,0,.25.06.38.07.14,1.07,1.2,1.27,1.41,1.59,1.62,3.45,2.78,5.12,4.22s1.95,2.96,3.45,4.35c.19.18,1.59,1.28,1.73,1.15-.15-.62-1.19-1.41-.58-2.05.38-.4,1.46.61,1.79.9.22.19.59.74.8.9,1.1.8,2.8.21,2.59,2.36-.19,1.93-2.15.55-2.3.7-.03.55.19,1.07.26,1.61.03.23-.14.46-.08.7.26.97,1,1.65,1.23,3.14.27,1.76.78,3.66,1.34,5.43.09.28.52,1.5.64,1.67.12.18.13.12.26,0,.27-.25.31-.74.7-.9.17.89.14,1.84.27,2.73.19,1.22.25,2.28,1.77,1.49l.57,3.2,1.22.25c.06-.67-.08-1.46,0-2.11ZM-195.81,161.08c-.08-.2-.09-.69-.33-.75l-1.59.37.96,2.43,1.47-.71c.05-.33-.14-.11-.32-.06-.36.11-.7.29-1.09.25l.12-.33c0-.08-.46,0-.12-.25.32-.21.8-.4,1.15-.19.14-.38-.19-.61-.25-.77-.03.59-.83.61-1.28.64-.06-.33.06-.23.25-.31.14-.06.98-.37,1.02-.32ZM-203.61,165.3c.19.03.34.13.54.11,1.12-.15,2.66-1.56,3.93-1.57l.89-1.92c-.67-.6-.93,1.18-1.22,1.59-1.04.79-2.88.91-3.99,1.51-.15.08-.22,0-.16.28ZM-204,165.31c-.06-.08-.73-.12-.88-.08-1.05.31-2.47.88-3.49,1.38-.23.11-.98.53-1.06.73l.12.52c.17.21.51.15.74.1.54-.11,3.4-1.2,3.89-1.48.34-.19.94-.77.67-1.17ZM-209.75,168.38c-.19-.29-1.68.24-1.95.4-.2.12-.26.17-.22.42.17.56,1.73-.57,2.17-.45v-.37ZM-205.14,169.9c.82.01,2.23-.29,2.95-.7.52-.29.51-.68-.04-.43l-2.9,1.13ZM-213.11,169.04c-.11,0-.48.14-.54.22-.15.52-.18,1.27.52,1.23.83-.04.7-1.46.02-1.46ZM-204.25,172.08c.51.34.7-.77.19-1.02-.49-.05-.28.96-.19,1.02ZM-200.28,177.71l-.06-2.17c-.27-.35-.93.3-1.35.13l.13,2.17,1.28-.13ZM-199.67,178.5c-.32-.24-2.96.04-3.35.26-.16.09-.18.27-.31.36-.09.07-.27.06-.38.16-.27.25-.44,1.09-.24,1.38.27.39,4.01-.44,4.68-.27l-.39-.2-.12-.95.26.45c.17.21.15-.17.14-.26-.05-.37-.17-.59-.29-.93ZM-207.96,181.42l-.49.02-.22,2.28.16.24.94.02c.03-.24-.33-.07-.46-.24-.27-.37.23-1.79.07-2.31ZM-209.75,186.79c-1.54.16-2.97-.27-4.39-.79-.13-.05-.12-.18-.28.02-.31,1.98.41,4.01-.13,5.96.52.92,1.35,1.65,1.55,2.74.3,1.64-.43,2.63.31,4.42.81,1.94,1.35,2.65.99,4.96-.11.7-.89,1.43-.81,1.89.11.62.84.7,1.12,1.18s.22,1.39.28,1.5c.16.27,1.55.71,1.98,1.1.48.44.97,1.48,1.39,2.06.06.09-.03.22.22.16,4.11-2.87,5.19-7.75,3.25-12.32-.89-2.1-2.57-3.8-3.67-5.8-1.24-2.25-1.5-4.56-1.82-7.08ZM-223.18,223.88c-.88-1-2.4-1.38-3.54-2.02-.78-.44-.93-1.14-1.83-.46-4.76,3.58-9.68,7.04-14.03,11.1-2.79,2.61-5.81,5.72-8.23,8.72-.86,1.07-1.45,2.29-2.25,3.38-1.38,1.87-3.54,3.79-4.79,5.7-.64.97-1.18,2.48-1.81,3.56-.45.76-1.64,2.76-2.21,3.29-1.08,1.02-3.04-.44-3.62.15-.07.07-.82,1.7-.85,1.88-.09.44.1,1.26.04,1.85-.09.9-.41,1.89-.62,2.76.69,0,1.29.43,1.98.44,1.5.02,3.25-.2,4.87-.19,8.63.07,17.34.22,25.96.29,5.27.04,11.29.66,16.49-.04,1.51-.2,5.07-1.01,2.3-2.78-2.48-1.58-8.79-1.89-11.94-2.77-8.42-2.34-12.89-10.5-9.59-18.81,1.9-4.78,8.83-12.83,13.04-15.74.25-.17.14-.55.65-.31ZM-193.5,255.86c-1.62.34-3.34.79-4.73-.38-.05.25.06.34.18.52.21.28,1.33,1.64,1.54,1.66.82.08,2.81-.89,3-1.79ZM-271.5,259.41c1.31-.05-.66-1.75-1.05-2.14.07.89.58,1.44,1.05,2.14ZM-273.28,258.89c-.23-.24-.47-.9-.94-.66.2.39.68.71.9,1.02.19.28.23.65.45.95.54.74.87.29.48-.37-.22-.38-.59-.64-.89-.94ZM-183.53,265.2c-.55,0-1.19-.12-1.72-.13-1.63-.05-2.37.2-3.97-.32-.43-.14-1.62.13-2.42-.18-.45-.18-.61-.64-1.09-.71-.31-.05-.69.14-1.03.07l.13.45,2.54.59.07.5c2.38.57,4.84.33,7.28.1l.21-.36Z"/>
    <path d="M-178.92,175.28c.96-.85,1.92-1.77,3.07-2.37.5-.26,1.76-.82,2.27-.93,1.68-.34,1.42,1.2.33,1.99-.66.48-2,.7-1.83,1.69.55-.32,1.22-.28,1.79-.44.64-.18,1.71-.8,2.3-.52.33.16.46.79.36,1.12-.39,1.3-4.61,1.72-4.33,3.48.1.61,1.95.51,2.49.59,2.08.33,1.3,1.85-.37,2.03-.99.11-2.44-.35-3.36-.17-.68.13-1.42.91-2.12,1.22-.45.2-1.43.33-1.68.5-.48.33-.17,1.48-1.56,1.64-.87.1-1.43-.32-1.85-.31-.37,0-2.63.58-2.87.83s.45-.03.32.32c-.32.84-2.82.94-3.57.59-.43,1.04-2.13,1.37-3.15,1.4-.59.02-1.24-.21-1.8-.25s-1.37.34-1.91-.13l.21-6.21c-.42-1.07.1-2.21-.9-3.08-.18-.15-.41-.18-.58-.31-.58-.43-.15-1.07.47-1,.94.1,1.87.51,2.49,1.24.86-.38,1.52-.99,2.54-.88.45.05.61.31.98.43.58.17,1.28.24,1.82.49.41.19,1.13.92,1.45.98.4.09,1.61-.46,2.4-.35.17.02.33.22.39.22.09,0,.53-.5.63-.62,1.49-1.91,2.69-4.41,4.29-6.29.64-.11,1.91-1.33,2.38-1.37.5-.05.99.42.93.93-.18,1.43-1.73,2.16-2.02,3.55ZM-178.58,173.32c.41-.46,1.57-1.56.86-2.12l-.3-.08c-.5.59-1.47.86-1.98,1.35-1.55,1.48-3.69,6.37-5.19,7.22-.77.43-.97.08-1.58,1.11-.57.97-.41,2.51.64,3.04.15.07,1.21.37,1.4.39.41.06.85-.04,1.27,0,.96.1,2.59.78,2.72-.73.09-1.07-1.21-1.1-1.51-1.5-.47-.64.41-1.08.5-1.58.05-.3-.12-.57-.12-.87,0-.45,2.08-4.92,2.46-5.48.26-.38.61-.51.83-.77ZM-173.08,173.07l.15-.52c-.04-.15-.28-.28-.43-.29-.96-.03-3.73,1.81-4.48,2.5-.21.19-1.45,1.44-1.21,1.67l.76-.07,5.21-3.29ZM-171.51,175.04c-.17-.05-.36-.02-.53.02-.65.14-2.58.69-3.16.94-.38.17-1.86,1.08-1.53,1.58.18.06.37.14.57.14.43.02,3.2-1,3.73-1.26.18-.09.94-.54,1.01-.66l-.08-.75ZM-191.59,178.22l-2.41.66-.15,1.51c.37-.14.45-.62.68-.85.41-.42,1.07-.64,1.56-.94.17-.1.38-.1.31-.39ZM-189.67,182.19c-.24-.86,2.42-1.88,1.41-2.37-.83-.4-1.43,1.03-1.52,1.68-.02.14-.13.69.11.69ZM-172.32,180.31c-.54-.28-1.02-.11-1.55-.18-.43-.06-2.72-.67-2.48.31.11.44,2.99.76,3.51.72.34-.03.71-.06.95-.33.02-.1-.4-.51-.43-.53Z"/>
    <path d="M-178.78,152.89l.37-.12c-.17.42.22,1.06.21,1.34s-.37.6-.08,1.09l-1.02-.13c-.13.37.47.18.24.5-.01.01-.16,0-.2.06-.14.21-.06.53-.6.47-.07,0-.06-.25-.36-.31-.71-.14-.66.55-.62,1.07l-.38.26c-.32-.19,0-.79-.51-.89l.13.51c-.66,0-.36.65-.9.13.29.59-.21.51-.34,1.03l-1.13.37-.25-.37c-.33.13-.17,1-.5.27l-1.04.48-.31-.36c.06.27-.2.6-.45.64-.09.01.01-.4-.32-.26l.13.38c-.76-.24-1.14.07-1.85.26l.06.38-.26-.38-.19.26-.19-.26-.06.38-.32-.25-.02.24c-.47-.2-.31.08-.46.13-.21.07-.5.14-.73.2-.85.24-2.74.85-3.49.93-.39.04-.67-.14-.63-.55.03-.3,2.17-1.14,2.58-1.34.53-.26.58-.53,1.16-.53.38,0-.01-.19.05-.24.32-.22.18.31.38.25v-.51s.26.25.26.25c.06-.77.97-.29,1.03-.89l.25.25c.03-.45.76-.32.77-.89l.19.25c.24-.24.46-.55.83-.39v-.38s.24.1.24.1c.09-.48.37-.19.54-.29v-.32s.32.11.32.11c.1-.28.1-.3.38-.14l.26-.36-.06.51.34-.4.43.14c-.11-.49.19-.32.37-.46.23-.17,0-.41.52-.18l-.13-.3.26-.33.38.51-.13-.51c.54.09,1.45-.67,1.73,0,.4-.59,1.13-.49,1.54-1.28l.19.25c.13-.87,1.19-.09,1.34-.64l.07.25Z"/>
    <path d="M-246.64,185.71c.75-.54,1.62-1.07,2.54-1.36,1.16-.36,2.03-.61,1.29.9-.79,1.61-2.57,1.89-3.82,2.96-.39.33-.91,1.38-1.23,1.47-1.05.29-.35-2.43,0-2.96.26-.4.85-.73,1.23-1.01Z"/>
    <path d="M-249.53,214.16c.44,1.41-1.19,2.64-1.97,3.72-2.83,3.91-5.39,7.97-7.81,12.14-.41-.31,0-.99.17-1.36.93-2.09,3.11-5.34,4.39-7.38s3.09-5.14,4.6-6.78c.17-.19.34-.35.62-.34Z"/>
    <path d="M-265.77,240.9c-.24-.77.11-1.54.51-2.21.35-.59,1.09-1.75,1.54-2.33.15-.2.44-.27.51-.42.19-.37.19-2.08.54-2.87.14-.32,1.44-1.81,1.69-1.76.58.12-.23,1.24-.32,1.47-.49,1.2-.86,2.75-1.38,3.87-.28.61-1.11,1.44-1.54,2.04l-1.56,2.22Z"/>
    <path d="M-230.3,154.47c-.39.51-.33.8-1.14.85-.9.06-1-.41-1.54-.51-.1-.02-1.51.01-.96-.33.29-.18,1.43-.27,1.85-.32.14-.02.43.1.32-.18-.08-.21-.64-.81-.86-.94-.62-.33-1.83.43-1.95-.28.67-.04,1.33-.61,1.99-.65s2.88.44,2.88,1.22c0,.65-.33.78-.6,1.14Z"/>
    <path d="M-246.46,169.78c-1,.02-2.15.15-2.82.95l-3.7,2.5c1.41-2.32,3.58-3.76,6.19-4.46l.33,1.01Z"/>
    <path d="M-234.05,184.36c.23.22-1.01,2.76-1.24,3.18s-.63,1.23-.88,1.55c-.15.18-.22.15-.44.14-.11-.11.45-2.53.55-2.84.28-.87.9-2.35,2.01-2.02Z"/>
    <path d="M-243.04,154.71c.78-.24,1.36.57,1.31,1.3-.06.76-.22.74-.1,1.66.01.08.2.28-.08.34-.8.18-.52-1.84-.76-2.31-.19-.36-.96.8-1.09.19-.06-.31.39-1.08.72-1.18Z"/>
    <path d="M-227.27,153.02c-.06.06-.69-.13-.75.21-.29.86.37,1.28.37,1.51,0,.13-.42,1-.64.83-.17-.86-1.21-2.42-.38-3.13.67-.58,1.39-.35,1.4.57Z"/>
    <path d="M-206.68,227.59c-.87.05-4.25-.91-4.73-1.47-.13-.16-.16-.23-.13-.44,1.68.44,3.48.78,4.86,1.92Z"/>
    <path d="M-244.28,163.38c.23.1.18.5.33.75.47.81,1.34,1.31,1.72,2.25.05.13.19.26-.07.32-.21.05-.34-.02-.52-.12-.41-.24-1.83-2.58-1.46-3.2Z"/>
    <path d="M-241.09,213.4c.03.2-.34.18-.48.2-.85.12-2.21.05-3.04-.2-.19-.06-.22.07-.19-.26.75-.03,1.45-.21,2.24-.13.51.05.98.27,1.47.38Z"/>
  </g>
  <g>
    <path class="st1" d="M-185.42-155.24c-.07,0-.14,0-.21,0l-.18.44c-.17.05-.16-.1-.16-.11.3-.09.15-.24.11-.44.11-.12.41-.06.44.11Z"/>
    <path d="M-237.95-147.62c.36-.03.88-.25,1.27-.28l2.87-1.16c-2.06.23-4.12.51-6.19.55l.12-.27c1.19-.37,2.42-.63,3.59-1.05,2.23-.82,4.34-2.07,6.68-2.55-.35-.79-1.15-1.78-.6-2.65.19-.31.82-.55.82-.83-.48-1.33-.37-2.54-1.19-3.78-1.86-2.82-7.34-3.99-10.26-2.48-3.1,1.61-4.35,5.11-3.41,8.42.16.55.59,1.11.56,1.65-.86-.62-1.22-1.92-1.37-2.94-1.2-8.53,10.36-11.05,14.84-5,1.01,1.36.79,1.86,1.08,3.34.09.44.6.95.62,1.49.02.42-.56,1.3-.54,1.96.02.69.64,1.05.78,1.55.22.84-.33,2.58-.33,3.53,0,.58.46.93.28,1.5.13.18,3.5.6,4.05.71,1.72.34,4.67.79,5.96,1.88.52.43,1.9,2.34,2.2,2.44.81.26,1.92-.42,2.7-.63l.08-.3h.32c-.26-.92,1.62-.83,1.96-1.25.05-.06.26-1.14.25-1.22,0-.05-.33-.14-.23-.39-.22-.22-1.82.69-2.18.74-.75.12-1.17-1.21-.35-1.46,1.63-.51,3.21-1.26,4.82-1.81.4-.14,1.13-.52,1.24.15.18,1.08-1.74,1.11-1.87,1.56-.05.18.09.37.07.52-.03.24-.31.4-.14.73.11.2.64.33.86.31l4.26-1.43c-.04-.97.44-1.61,1.34-1.92-.29-.22-.19-.67.08-.83.33-.2,2.08-.63,2.39-.33.07.07.67,1.59.74,1.83.06.19.33,1,.32,1.11,0,.14-.16.24-.18.36-.29,1.31-.48,1.4-1.79,1.85l-.61-.49-4.81,1.76.23.77c.29-.05.62-.19.91-.09.2.07.23.39.4.48.47.24,1.97.04,1.77,1.1-.15.8-1.08-.33-1.48-.25l-1.72.87c-.09.11.33,1.2.43,1.27.19.13.69,0,1.01.1.6.19.83.93.58,1.47-.18.38-.45.1-.58.36.44-.04,1.41-.02,1.66.41.09.14.06.35.13.5s.22.24.28.39c.17.5.21,2.01-.08,2.46.57.07,1.14.39,1.63.69,0,.92.36,1.98-.92,1.96l-5.47.22.11,6.52h3.48s.63-.09.61-.22h-.77c-.29-.83.11-3.01-.13-3.6-.03-.08-.45-.05,0-.21l-.16-2.28c.06-.08,1.61-.21,1.89-.22.31-.01,1.07-.06,1.31.01.21.06.18.7.18.92.06,1.63-.11,3.37,0,4.98.05.73.61,1.34-.72,1.49s-4.19.33-5.51.1c-.2-.04-.76-.13-.85-.28-.24-.37.16-1.78-.2-2.31l-2.66-.38c.13,1.41.21,2.77.69,4.11.77,2.16,2.5,3.75,3.53,5.75,1.83,3.54,1.68,8.11-1.12,11.07-.36.38-1.24,1.02-1.44,1.32-.06.09-.15.12-.11.28,1.26.65,2.23,1.75,3.16,2.81,1.97,2.24,4.15,5.42,5.61,8.04.08.14.21.24.18.43-.63-.07-.73-.72-1.01-1.14-2.85-4.22-5.24-7-9.65-9.57-.42-.24-.39-.37-1-.55-.31-.09-2.57-.52-2.68-.43-.06.05.06.25-.13.2l-.17-.33c-.23.26-.29.59-.72.55.06.32.81.16.88.22.04.19-.06.22-.17.33-.37.37-1.96.81-2.56,1.09-1.15.52-2.24,1.2-3.35,1.73-.2.1-.44.15-.66.17.04.21.56.11.72.1,1.51-.07,5.78-.96,6.94-.2.31.2.09.48-.16.59-.69.31-2.39.15-3.26.34s-1.93.7-2.9.79l-1.35.58c2.22.33,4.46.43,6.63,1.05.24.32.14.47-.17.62-.28.14-2.07.29-2.54.31-.64.03-1.29-.01-1.94,0-.01.12,0,.22.05.33.06.12.92,1.04,1.1,1.22,1.37,1.4,2.98,2.4,4.42,3.65s1.68,2.56,2.98,3.76c.17.15,1.37,1.1,1.49.99-.16-.63-.99-1.09-.5-1.77.29-.31,1.18.44,1.44.67.22.19.58.72.8.89.65.48,2.06.35,2.23,1.38.26,1.61-.79,1.93-1.98,1.15-.04.55.16,1.07.22,1.6.02.16-.12.34-.09.53.05.38.95,1.6,1.09,2.68.15,1.15.3,1.4.6,2.48.27.94.61,2.9,1.11,3.64.11.16.11.11.22,0,.23-.22.26-.64.6-.78.18,1.29.2,2.6.56,3.86l1.2-.21.49,2.76,1.05.22v-1.82c0-1.05,1.15-1.29,1.97-1.51.3-.21-.02-1.55-.09-1.91-.03-.15.11-.32-.16-.28-.54.78-1.99,2.7-3.05,1.72-.53-.49,0-1.51.09-2.14.37-2.61.15-4.29-.29-6.83-.13-.73.02-1.68-.78-2.14,0,1.04-.25,2.23-.79,3.13-.92,1.51-1.3.89-2.42.01.62-1.76.73-3.58,1.55-5.3.98-2.06,1.45-1.52,2.76-.05.22-.83,0-1.8.12-2.59.05-.3.95-2.18,1.17-2.26.4-.14.96.34,1.36.43.1-.68-.2-1.24-.33-1.88.42-.37,1.57,1.07,1.75,1.4.39.72.63,2.06.83,2.9.76,3.18,1.14,6.92,2.09,9.98.25.8,1.2,2.53,1.28,3.15.09.75-.56,1.75-.42,2.62s1.19,1.48,1.22,2.43c.02.53-.31,1.26-.78,1.55.38.41.64,1.28,1,1.65.24.25.63.3.86.46.88.61,1.71,1.34,2.62,1.91.4.25,1.09.26,1.26.84-.47,1.04-1.32-.13-1.85-.25-.69-.15-1.44.15-2.08.09-.3-.03-.44-.21-.72-.23l.67.71.88.17c-1.13.19-2.19-.18-3.31.22.39-.31.31-1.05.75-1.01l.24-.76c-.44-.06-.89.6-1.06.64-.07.01-1.1-.16-1.13-.21-.03-.04-.01-.45-.14-.69-.18-.35-.84-.73-1.03-1.16l-.94.21c.31.4.99.6.88,1.21l-.66-.11c-.11.48-.22.99-.61,1.33l-1.5.44c1.04.14,2.08-.08,3.1.38.6.27,1.79,1.36,2.39,1.47.17.03,2.28.05,2.52.02.55-.07,1.44-.69,1.7-1.17.11-.19.09-.53.19-.61.18-.13,1.07-.14,1.31-.09.28.05.43.35.72.32l-.33-.39c-.01-.32,1.01-.09,1.2,0,.71.37.98,1.8.56,2.48.98-.09,1.97.09,2.93.11.9.01,2.42-.24,3.21,0,.17.05.31.02.11.23-.51.52-5.04.4-5.97.44-3.08.14-5.44.15-8.52.02-5.01-.22-9.83-.2-14.79-.4-1.45,0-3.23.22-4.65.06-.63-.07-.37-.43.06-.61,1.05-.44,5-.15,6.35-.16l5.81-.12c.03-.35-.25-.6-.28-.93-.03-.5,0-1.84.05-2.33.05-.39.34-.71.26-1.13-.29-1.49-1.12-1.93-1.91-2.95-1.18-1.54-.35-2.16-.69-3.51-.09-.35-.77-1.13-.99-1.55-.82-1.59-1.9-4.59-2.16-6.34-.08-.54.04-1.19-.05-1.61s-.62-.62-.91-.97c-1.12-1.4-.56-2.88-1.29-4.34-1.3-1.04-2.77-1.96-4.01-3.06-.63-.56-1.19-1.28-1.82-1.82-1.72-1.47-5.19-3.33-7.24-4.28-.13-.06-.45-.48-.75-.4-.18.04-1.15,1.34-1.4,1.59-3.23,3.24-6.33,5.78-8.67,9.9-4.22,7.43-1.74,14.68,6.45,17.28,3.01.95,6.89,1.08,9.64,2.18,1.62.65,2.88,2.38,1.07,3.67-2.25,1.61-9.62,1.26-12.54,1.17-5.42-.17-10.87-.48-16.26-.16-.68.04-.32.08-.71.19-1.3.36-2.73-.28-4.1-.13-.3.03-.66.23-1.03.28-.76.1-2.54-.29-3.54-.31-1.47-.02-2.82.16-4.31.12-1.59-.04-3.19.31-4.75.23-.51-.03-.82-.28-1.49-.29-2.61-.02-5.1.76-7.9.51-.74-.07-2.3-.24-2.97-.45-.62-.21-.46-.61.16-.55-.26-.85-.2-1.8.55-2.38l.66.17c-.31.69,0,1.2.73,1.32s1.11-.58,1.87-.66c.47-.05,1.6.15,1.99.45.37-.27-.44-.67-.6-.83-.09-.09-.16-.1-.12-.27.48-.11.82-.51,1.32-.62.65-.13,1.27.08,1.88-.27-.42-.7-1.41-.83-2.15-.99-.15.19.28.11.38.31.63,1.14-1.79.76-2.33.53-.8-.35-.11-1.05-.22-1.16-.76.36-1.38.92-2.26,1l-.06-.22c.46-.2,1.15-.36,1.44-.77l-.44-.11c.69-.22,1.2-.76,1.82-1.11.67-.37,2.04-.82,2.6-1.27.35-.27.16-.71.36-.91.16-.16.72-.15.97-.41.17-.17.96-1.86.99-2.11.07-.58-.41-1.15-.44-1.76-.1-1.69,1.2-2.02,2.16-2.92.7-.66,1.52-2.02,1.98-2.88.33-.63.45-1.67,1.17-1.98.19.15-.35,1.63-.47,1.91-.18.41-.46.72-.61,1.05-.6,1.28-1.2,2.55-1.82,3.83-.15.8.49,1.6.46,2.39-.27-.21-.48-.52-.74-.75-.13-.12-.51-.51-.7-.41.35.34.83,1.62,1.37,1.61.07,0,.08-.24.25-.32.62-.31,3.11-.25,3.24-.35.05-.21-.07-.21-.19-.3-.81-.57-2.09-.22-2.02-1.52.06-1.07,1.59-1.37,2.38-1.93,1.11-.78,1.91-1.96,2.93-2.82.72-.6,1.6-1.04,2.27-1.71.21-.21.3-.48.61-.62v-.22s-.22-.16-.22-.16l.55-.11c-.11-.28-.65.03-.86.08-.31.07-.53.16-.78.22-.75.18-1.49.44-2.27.37-.37-.37-.04-1.17.25-1.5.92-1.08,3.33-2.24,4.57-3.05.5-.32,2.53-1.57,2.79-1.85s.08-.52.56-.87c2.58-1.89,6.64-3.35,9.53-5.06.48-.28,2.73-1.71,2.94-2.03.05-.08.07-.12.05-.22-1.82.34-3.39,1.67-5.3,1.44-.03-.16.03-.27.09-.41.56-1.41,6.6-4.64,8-5.89l.19-.28c-1.03-.4-2.39-.51-3.39-.91-.09-.03-.85-.45-.89-.48-.02-.01-.03-.35-.08-.43.74-.47,1.58-.08,2.36-.02.94.07,3.72.42,4.44.19.36-.11.48-.36.05-.52-.21-.08-.4,0-.45-.01-1.16-.33-2.73-.81-3.91-1.37-.52-.24-1.24-.66-.91-1.32.27-.15.79.05,1.09.14.87.25,2.09.95,2.87,1.11s4.05,0,4.71-.33c.2-.1.16-.45.41-.31.03.02-.27.28.05.22l.94-.61c-.75-.14-1.49.22-2.26.17-3.32-.22-7.27-1.35-10.36-2.57-.46-.18-.92-.54-1.48-.6-.98.49-2.78.47-3.52,1.18-.43.41-.64,1.32-1.29,1.2-.56-.1-.37-.55-.25-.98.16-.55,1.07-1.95,1.58-2.18.8-.35,2.82-.09,3.78-.14l-.11-.22c1.09-.38,2.17-.06,3.26-.11,1.29-.06,2.09-.77,3.03-1.55-.34,0-.6.19-.94.22-1.78.17-3.55,0-5.3-.11-1.39-.08-2.86.09-4.14-.56l-.34,1.76c-.72.14-.95-.42-.99-1.04-.02-.36.15-1.38.1-1.63-.06-.29-.6-.92-.7-1.4-.18-.86.06-1.68.44-2.44.44-.87,1.34-1.47,1.27-2.48s-.77-1.57-1.05-2.49c-.31-1.03-.19-2.08-.78-3.08-1.04-1.75-2.78-3.43-3.82-5.24-1.97-3.44-2.21-7.15-.26-10.68.82-1.49,4.64-5.15,6.24-5.58.5-.13.94.06.5.51-.9.59-2.04,1.1-2.87,1.77-.39.31-.73.77-1.11,1.1-.35.31-.88.54-1.22.88-1.57,1.59-2.3,6.39-1.4,8.37.57,1.26,2.59,2.59,3.89,2.96.46.13,2.19.16,2.27.27.21.3-.37.87-.62,1.05-.68.49-1.24.4-1.93.61-.12.04-.2-.07-.16.17,1.11,1.84,2.93,2.97,4.52,4.32.8.68,1.59,1.77,2.52,2.24.09.04.95.26.57-.03-.16-.12-.24-.02-.22-.34.05-.77.63-1.19.93-1.73.68-1.22,1.2-2.66,1.92-3.82.23-.36.51-.85,1.02-.81.3.81-.55,2.89-.12,3.49.33.45.51-.22.72-.4.62-.52,1.31-.8,1.81-1.51.78-1.12,1.7-3.5,2.73-4.23.15-.11.29-.25.49-.22,0,.69.1,1.45-.01,2.14s-.54,1.25-.65,1.94l1.36-.35c.24-.12.38-.91.53-1.23.27-.58,1.91-3.75,2.24-3.95.18-.11.57-.26.62.06.12.86-.05,1.64-.3,2.46-.21.67-.66,1.32-.64,2.01l1.44-1.43,1.05-.67v-.16c-1.24-.93-.28-2.78.17-3.92-.01.52.35.68.55,1,.47.78.85,1.65,1.5,2.31l-.28-2.1c.68-.41,1.45-.02,2.16,0-.05-.45-.92-2.45-.37-2.64l.54.1c.37,1.18.8,2.35,1.26,3.5.04.11-.06.19.17.15.77-.89,1.4-1.89,2.76-1.88.37,0,.71.27.89.28.2.01,1.84-.66,2.12-.82.6-.33,1.45-1.3,2.02-1.41.82-.16,2.36,1.58,2.99.34,0-.59-2.82-1.13-2.98-2.01-.03-.15.13-.24.24-.29.87-.4,2.5,1.08,3.49.9l.31-.93c-.22-.44-2.46-.84-3.02-1.14-.22-.12-.39-.24-.37-.52,0-.13.06-.22.19-.26.83-.27,2.59.97,3.56.74.29-.83.24-1.18-.54-1.59l.33-.27c-1.37.61-2.72-.54-4.04-.88l.06-.5,1.55-.5c-.09-.67-.71-.17-1.05-.12-.81.13-1.09-.31-1.3-.3-1.14.01-2.91,2.27-3.78,3.08-1.11,1.04-2.07,1.71-3.25,2.6-.52.4-1.27,1.42-1.94,1.37-.62-.05-.52-.37-1.42.03-.63.28-1.01.48-1.71.72-.19.07-.42.31-.55.33-.23.04-.6-.25-.87-.3-1.86-.29-2.45.55-3.25,2.03-1.19.21-2.5-.34-3.43.67-.16.18-.32.57-.35.59-.16.1-1.18.12-1.51.21-2.12.55-3.71,2.75-4.49,4.68-.48,1.17-.83,4.19-2.74,3.62-.61-.18-.7-1.92-.6-2.44.28-1.47,1.09-1.79,1.85-2.79.51-.66.7-1.59,1.44-2.09.29-.2.62-.23.87-.45-.61-1.17-2.44-.24-3.59-.23-.82.01-1.65-.25-2.49-.16l2.1-1c.28-.39-1.26-.51-1.43-.5-.61.03-1.16.39-1.79.33-.32-.03-2.2-.5-2.41-.66-.52-.38.06-.83.46-.97,1.07-.4,2.41-.28,3.5-.12.62.09-.08-.37-.3-.48-.46-.23-1.05-.27-1.45-.54-.5-.33-.65-.97-1.05-1.38-.43-.43-1.13-.65-1.6-1.05.17-.24.2-.14.41-.08.48.14.82.46,1.25.63,1.08.42,2.28.59,3.2,1.38.16-.18-.76-.79-.88-.97-.27-.4-.26-.87-.44-1.19-.08-.15-1.51-1.19-.75-1.02,1.02.23,2.71,1.11,3.34,1.97l1.6,1.1c-.44-.64-1.02-1.16-1.44-1.82-.99-1.56-1.24-2.43-1.71-4.15-.24-.87-.81-1.72-.5-2.65.23-.23,1.41,2.05,1.56,2.25.89,1.15,2.84,2.14,4.29,2.17l-1.6-.88c-.41-.48-.96-.8-1.38-1.27-.32-.35-1.46-2.12-1.57-2.52-.05-.17,0-.24.03-.41.88.41,1.69,1.05,2.57,1.46.1.05.34.17.41.03-.61-.58-1.32-1.25-1.81-1.94-.18-.26-1.18-1.98-1.17-2.15,0-.09.17-.2.33-.11.23.12.55,1.03.77,1.33.97,1.31,3.04,2.3,4.59,2.71.06.02.18.03.16-.05-.84-1.11-2.24-1.71-3.09-2.77-.29-.36-.47-.8-.73-1.15-.39-.54-1.13-.96-1.04-1.77.24-.22,1.06.7,1.38.89.46.26,1.28.56,1.8.74.23.08,2.23.68,2.24.53-1.06-.57-2.28-.88-3.24-1.62-.24-.18-1.47-1.28-1.29-1.53.09-.02.13.11.16.11.93,0,2.08.09,2.98,0ZM-200.77-147.84c-.07-.17-.07-.6-.28-.65l-1.37.32.83,2.1,1.27-.61c.04-.29-.12-.1-.27-.05-.27.08-.55.15-.78.33-.26-.15-.07-.28-.07-.39,0-.09-.42,0-.02-.26.26-.16.64-.29.92-.13.12-.33-.16-.53-.22-.66-.02.51-.72.52-1.1.55-.05-.29.05-.19.22-.27.12-.06.85-.32.88-.28ZM-202.87-147.17l-.33-.06-.89,1.66-3.23,1.08-.19.3c.17.02.29.11.47.09,1-.13,2.28-1.34,3.4-1.36l.77-1.71ZM-207.85-144.18c-.62-.29-.96.11-1.44.26-.17.05-.31-.04-.5.03-.41.16-2.65,1.2-2.74,1.46-.19.53.43.6.84.51.65-.15,2.64-.94,3.27-1.26.48-.24.66-.4.58-1ZM-212.83-141.53s-.5-.23-.53-.22c-.01,0,0,.16-.1.2-.28.12-1.38.27-1.24.72s1.51-.45,1.88-.39c-.01-.1.03-.26,0-.32ZM-205.86-140.99l-.22-.28h-.12s-2.65,1.05-2.65,1.05c1.04.06,2.02-.43,2.98-.77ZM-215.38-140.41l-.53-.2-.55.62.99.33.09-.75ZM-207.63-138.34c.09-1.3-1-.98-.33.07l.33-.07ZM-204.65-133.48l-.04-1.87c-.23-.3-.8.26-1.16.11l.11,1.88,1.1-.12ZM-204.11-132.79c-.3-.22-2.56.04-2.89.22-.14.08-.16.23-.27.31-.08.06-.23.05-.33.14-.24.21-.38.94-.21,1.19.25.36,3.64-.44,4.26-.23l-.55-.11c.09-.34-.2-.78.06-.99l.05.5c.15.18.13-.14.12-.23-.04-.32-.15-.51-.25-.8ZM-211.27-130.27l-.43.02-.19,1.97.14.21h.81c-.08-.24-.36.03-.44-.37-.07-.35.21-1.7.11-1.83ZM-212.82-125.63c-1.33.11-2.71-.23-3.98-.66-.47,1-.08,2.02,0,3.04.04.53-.06,1.14,0,1.66.08.69,1.01,1.57,1.25,2.39.37,1.26.1,2.47.32,3.55.06.31.35.57.47.86.81,1.99,0,3.64-.15,5.66.62.71,1.46,1.24.92,2.29.47.46,1.26.65,1.71,1.06.42.38.84,1.28,1.2,1.78.05.08-.02.19.19.14,3.26-2.26,4.37-6.09,3.12-9.86-.72-2.18-2.4-3.82-3.48-5.8s-1.3-3.94-1.57-6.11ZM-240.99-109.05c-.52.1-2.42-.85-2.6-1.22-.12-.25-.07-.84,0-1.11.1-.44,1.07-1.42.29-1.61-.5.39-2.34,1.31-2.5,1.83-.2.65.52,1.53,1.09,1.79.41.19,1.93.37,2.46.42.27.02.6.01.88,0,.13,0,.41.08.38-.11ZM-224.42-93.81c-.96-.58-2.1-.99-3.06-1.53-.67-.38-.8-.99-1.58-.4-4.1,3.09-8.36,6.07-12.12,9.59-2.41,2.25-5.02,4.94-7.11,7.53-.75.93-1.25,1.98-1.94,2.92-1.19,1.61-3.06,3.28-4.14,4.92-.55.84-1.02,2.14-1.57,3.07-.31.52-1.78,2.85-2.16,3.03-.9.43-2.46-.48-2.88-.06-.06.06-.7,1.46-.74,1.62-.08.38.09,1.09.04,1.6-.08.79-.37,1.62-.54,2.39.61.04,1.22.41,1.82.4,4.33-.08,8.58.05,12.93.1,3.67.04,7.37-.08,11.06-.05,5.27.04,11.59.69,16.77-.01,1.3-.17,4.38-.87,1.98-2.4-2.14-1.37-7.58-1.63-10.31-2.39-6.83-1.91-10.87-8.42-8.62-15.36,1.45-4.47,7.75-11.77,11.59-14.48.19-.14.15-.49.51-.27l.06-.22ZM-198.79-65.96c-1.38.29-2.91.67-4.09-.33-.05.22.05.3.16.45.18.24,1.15,1.41,1.33,1.43.71.07,2.43-.77,2.59-1.55ZM-265.74-62.87c.28-.33-1.03-1.66-1.32-1.88.07.31.14.7.29.98.18.34.63.99,1.04.89ZM-267.69-63.35c-.2-.2-.4-.78-.81-.57.2.33.56.6.75.9.19.28.43,1.23.84,1.14.2-.15.14-.15.11-.33-.09-.47-.58-.83-.89-1.15ZM-190.17-57.9c-.48,0-1.03-.1-1.49-.12-1.38-.05-2.11.15-3.43-.28-.37-.12-1.4.11-2.09-.16-.39-.15-.52-.55-.94-.62-.27-.04-.6.13-.89.06l.11.39,2.2.51.06.44c2.06.48,4.18.29,6.29.09l.18-.31Z"/>
    <path d="M-186.19-135.57c.74-.62,1.51-1.42,2.35-1.9.53-.3,2.56-1.21,3.06-.92.68.4-.08,1.38-.52,1.69-.57.42-1.73.6-1.58,1.46l3.26-.89c.49,0,.71.61.59,1.04-.33,1.1-3.98,1.5-3.74,3.01.08.53,1.69.44,2.15.51,1.8.29,1.12,1.6-.32,1.76-.86.09-2.11-.3-2.9-.15-.62.12-1.23.8-1.83,1.05-.4.17-1.21.28-1.44.43-.29.19-.23.55-.39.82-.35.58-1.1.67-1.72.6-.34-.04-.66-.28-.84-.28-.12,0-1.72.33-1.91.4-.24.08-.44.21-.62.38-.06.12.43-.07.33.22-.18.48-1.47.69-1.93.69-.27,0-1.1-.22-1.15-.18-.06.04-.22.44-.53.63-1.29.81-2.44.45-3.75.36-.46-.03-1.18.29-1.65-.12l.18-5.37c.01-.37-.46-.45,0-.55-.37-.79,0-1.45-.77-2.11-.45-.39-1.08-.25-.54-1.14.17-.11,1.51.25,1.75.37.32.15.7.68.84.7.2.04,1.35-.84,2.19-.76.39.04.53.27.85.37.47.14,1.06.2,1.49.39.36.15,1.06.83,1.33.88.35.07,1.39-.39,2.07-.31.15.02.29.19.34.19.32,0,2.49-3.63,2.88-4.16.41-.57,1.07-1.1,1.37-1.81.87-.18,2.07-1.87,2.77-.8.6.92-1.62,2.56-1.66,3.48ZM-185.9-137.27c.41-.46.91-.91.93-1.56l-.18-.27-.26-.07c-.43.51-1.27.74-1.71,1.16-1.34,1.28-3.18,5.51-4.48,6.23-.66.37-.84.07-1.36.96-.5.84-.35,2.17.56,2.63.14.07,1.2.36,1.38.38.29.04.6-.07.92-.04.83.08,2.24.69,2.35-.62.09-1.03-1.61-1.05-1.47-1.7.05-.24.49-.61.57-.87.11-.36-.14-.7-.04-1.14.12-.52,1.75-3.92,2.1-4.42.23-.33.52-.44.72-.66ZM-181.14-137.48l.13-.45c-.04-.13-.24-.25-.38-.25-.84-.03-3.22,1.56-3.87,2.16-.18.17-1.25,1.24-1.05,1.44l.66-.06,4.5-2.84ZM-179.79-135.78c-.15-.04-.31-.02-.46.02-.56.12-2.23.59-2.73.81-.33.14-1.61.94-1.32,1.36.16.05.32.12.49.12.37.01,2.77-.87,3.22-1.09.16-.08.82-.47.87-.57l-.07-.65ZM-197.13-133.03l-2.08.57-.13,1.3c.38-.23.51-.73.86-.99.31-.23.75-.36,1.08-.56.15-.09.32-.09.27-.33ZM-195.47-129.61c-.2-.74,2.09-1.62,1.22-2.05-.73-.35-1.24.89-1.31,1.45-.02.12-.11.6.1.59ZM-180.48-131.22c-.46-.24-.88-.09-1.34-.15-.37-.05-2.35-.58-2.14.26.09.38,2.58.66,3.03.62.29-.02.61-.05.82-.28.01-.09-.34-.44-.37-.45Z"/>
    <path d="M-185.86-155.35c-.07-.41-.49-.94.22-.5l-.22.11.16.16.33-.2.23.2-.06.44c-.08,0-.17-.1-.22-.11-.03-.17-.33-.23-.44-.11Z"/>
    <path d="M-185.42-155.24l-.11.33.66-.11-.22.22.75-.13.13-.2c-.05.31.21.23.44.22.12.21-.44.76,0,.66l-.17.22-.28-.22-.11.22-.22-.27.22-.16-.28-.11-.06.44-.33-.22c-.13.52.23.76.33,1.21-.31-.09-.69.44-.74.45-.25.04-.55-.18-.84-.11-.06.01-.15.34-.41.22.37.41-.57.72-.45.11-.38-.01-.78.24-.77.66l-.11-.22-.37.21-.29-.21.22.44-.88.11c.26.58-.28.41-.22.88-.62.16-.05-.43-.44-.66l-.02.76c-.31.11-.72.3-.81-.1l-.28.11.11.33-.28.11c-.31-.64-.53.04-.67.09-.25.09-.59-.04-.85.02-.08.02-.22.47-.62.24l-.12.2c-.03-.27-.16-.38-.44-.33l.11.44-.17-.22c-.34.2-.58.29-.99.21l-.06.34-.33-.22c.04.41-.2.1-.31.14-.99.36-2.31.79-3.31,1.07-.2.05-.65.18-.8.07-.21-.35-.28-.47.08-.71.73-.48,1.82-.76,2.56-1.16.13-.07.04-.41.57-.19l-.22-.33.44-.22.22.33c0-.43.56-.29.56-.66l.11.22.22-.33.22.22c0-.31.41-.37.67-.44l-.11-.33.27.21.39-.1-.22-.16.39-.15.28.31-.11-.55.22.11v-.44s.27.12.27.12l.13-.24.33.11c.09-.17,0-.26.27-.21v.33s.33,0,.33,0l.12-.55.37.12c.12-.37.39-.2.72-.24.05-.36.02-.47.23-.77l.22.39.33-.06-.33-.33.78-.17.16-.39.06.32h.44s.05.23.05.23l.19-.54h.31s-.22-.34-.22-.34l.44.05-.11.39.77-.22c-.18-.35.04-.8.43-.56l.12-.44.11.44.54-.02.07-.21c.06-.02.09.16.17.22,0,0,0,.16.16.11l.18-.44c.07-.01.14-.02.21,0Z"/>
    <path d="M-185.97-154.91c-.02-.22-.03-.29.11-.44.04.2.19.35-.11.44Z"/>
    <path d="M-248.22-99.6c-.58.82-1.23,1.61-1.81,2.44-2.01,2.87-3.84,5.84-5.6,8.87-.54.03.42-1.69.5-1.82,1.47-2.74,3.53-5.94,5.26-8.55.92-1.38,2.02-2.63,2.81-4.1.14-.1.6.31.53.58-.04.16-.82,1.45-.98,1.69-.22.33-.49.57-.71.89Z"/>
    <path d="M-242.05-127.89c.99-.2,1.11-.01.71.87-.73,1.6-2.94,1.91-4.08,3.44-.11.14-.09.69-.55.45-.83-.44.2-2.51.72-3.05.54-.56,2.44-1.55,3.2-1.71Z"/>
    <path d="M-234.25-153.14c.3-.88,1.2-.45,1.88-.66-.32-.64-1.11-.57-1.6-.99l-.07.31-.98.24c-.14-1.67,4.01-1.43,4.36-.66.18.39-.08,1.61-.38,1.93-.94,1.01-2.13-.31-3.21-.17Z"/>
    <path d="M-261.21-78.89c-.2-.51.11-1.51.43-1.91.14-.17.37-.13.43-.21.26-.37.5-1.42,1.01-2,.09-.11.28-.03.34-.15.05-.1.08-1.01.14-1.28.29-1.34.66-1.93,1.79-2.74.44.39-.12.88-.28,1.27-.42,1.04-.74,2.38-1.19,3.34-.24.53-.78.96-1.11,1.43-.51.75-.91,1.62-1.56,2.25Z"/>
    <path d="M-240.44-153.14c-.07.07-1.28-.67-1.94.1-.93,1.1.3,3.57,1.5,4.15.01.26-.77,0-.88-.06-.14.18.39.89.55,1.05-.34.18-.81-.16-.98-.46-.26-.46-.88-2.05-.98-2.55-.29-1.39.14-3.14,1.9-2.89.19.03,1.12.36.83.65Z"/>
    <path d="M-233.81-127.73c-.07.82-.48,1.57-.84,2.31-.08.16-1.26,2.39-1.48,2.11.18-.8.32-1.61.52-2.41.11-.44.16-.76.49-1.28.3-.48.7-.95,1.31-.74Z"/>
    <path d="M-239.56-149.61c-.69.34-2.02-1.05-1.96-1.59.03-.23.38-.42.3-.73h-.65c-.16.35-.22.63-.13.99-.99-.36-.37-2.17.7-1.86.09.03.7.6.75.69.37.62-.67,1.08.21,1.89.28.26.76.21.78.6Z"/>
    <path d="M-210.17-90.27c-.12.14-3.18-.88-3.53-1.05-.18-.08-.87-.45-.66-.72.86.26,1.68.38,2.54.72.41.16,1.05.46,1.4.69.14.1.3.12.25.35Z"/>
    <path d="M-239.89-102.65c.09.09.11.2-.12.18-.99-.1-1.85.14-2.92-.18-.16-.05-.19.06-.16-.22.65,0,1.25-.18,1.93-.11.17.02,1.21.27,1.27.33Z"/>
    <path d="M-242.55-147.71c.05.51.03,1.14-.18,1.61-.07.15,0,.18-.25.14-.18-.53-.43-.99-.33-1.58.22-.23.47-.36.76-.17Z"/>
    <path d="M-243.87-143.31l-.33-.82c.02-.42-.13-.89.28-1.16.35,0,.07,1.72.05,1.99Z"/>
  </g>
  <g>
    <path d="M45.37,15.87c1.34-.16,3.63-1.32,4.97-1.67-2.32.47-4.67.69-7.03.78l.12-.27c3.63-.72,6.81-2.75,10.37-3.64-.32-.73-.9-1.44-.79-2.29,4.77-10.04-19.09-12.49-13.44,2.63-6.33-8.71,8.18-15.87,13.61-8.03,1.04,1.4.79,1.86,1.1,3.37.67,1.06.69,1.83.11,3.06-.19,1.24.54,1.19.75,1.99.08,1.48-.53,3.57-.06,5.08,2.71.78,7.68.79,10.11,2.62,1.8,2.04,2.16,3.27,4.88,1.87.37-.2-.06-.42.47-.36-.05-1.51,2.4-.11,2.24-2.49,0-.03-.34-.24-.29-.42-.79-.15-2.49,1.57-2.91.24-.18-.57.08-.8.55-1.03,1.09-.24,5.34-2.68,5.99-1.59.18,1.09-1.75,1.12-1.89,1.58-.05.18.09.37.07.53-.03.25-.33.32-.23.59.43,1.29,4.55-.98,5.26-.98-.04-.98.45-1.62,1.35-1.94-.89-1.09,1.94-1.48,2.49-1.18.28.24.89,2.49,1.07,2.97-.29,1.19-.69,1.96-1.99,2.23l-.62-.49-4.86,1.78.24.77c.49-.07.99-.28,1.32.4.46.23,1.99.07,1.79,1.11-.15.8-1.09-.34-1.49-.25l-1.74.88c-.1.11.34,1.22.43,1.28.19.13.61-.07,1.01.1,1,.48.94,1.69-.11,1.84,2.18-.52,2.74,2.23,2.12,3.79.57.07,1.15.39,1.65.69,0,.93.36,2-.92,1.98l-5.52.23.11,6.58c.46-.08,3.88.22,4.13-.22h-.78s-.13-3.63-.13-3.63l-.2-.05c.47-.27-.08-1.97,0-2.38.74-.29,2.45-.34,3.27-.28.18.06.18.72.19.93-.23,7.2,1.85,6.94-6.3,6.63-1.65-.08-.47-1.57-1.07-2.62,0,0-2.69-.38-2.69-.38.48,8.66,10.98,13.93,1.9,22.43,5.28,5.05,9.83,11.34,12.95,17.92,0,.72-1.28,1.77-1.64,2.4.9,5.22.76,10.65,1.75,15.79,1.17.17,1.46,1.55,2,2.13.6.35,1.18.47,1.34,1.23,2.13,2.54,8.74,1.58,6.92,6.64l6.36.11c-7.04,2.03-16.02-.01-23.49.56-3.55-.61-7.57.08-11.11-.28,1.09-1.85,7.39-.18,9.66-.83.1-.9-.17-1.74.49-2.4-.37-1.49-.61-4.08.88-5.04-.26-5.39-4.72-9.5-4-15-1.61,0-3.09.78-4.65,1.11-3.87-3.04-6.88-8.56-11.59-10.79-15.26,12.54-19.1,28.86,5.22,30.92.86.21,2.64,1,1.02,1.74-6.72,1.45-14.46-.8-21.3-.09.16-.47-.6-.11-.79,0l-.11-.22-.11.22c-.28-.42-.42-.03-.78,0-.6.07-1.29-.09-1.89,0l-.12-.22c-.03.56-3.07-.02-3.68.13-.83.76-2.2.17-3.13.09-2.09.28-3.82.3-5.92,0-7.15-.24-14.78,1.38-21.81.06-.96-.47,1.38-.75,1.51-.94-.56-2.49,2.68-3.79,4.29-5.19,1.77-1.57,3.03-3.88,5.52-4.52,1.25-5.32,2.92-10.68,6.5-14.9-1.95-2.27,1.66-5.56,2.92-7.5.95-2.75,2.76-4.1,4.04-6.68,2.45-1.84,3.26-5.17,5.12-7.61,3.13-5.17,8.52,4.5,16.43,1.86-3.48-.4-8.34-.68-10.83-3.4,2.19-.68,4.55-.03,6.36-1.95-3.44.45-7.25.45-10.6-.45l-.28,1.68c-1.47.64-.95-2.03-.97-2.6-.75-1.01-1.06-2.6-.3-3.81,1.67-1.95,1.51-3.01.26-5.09-.31-1.04-.19-2.1-.79-3.12-7.07-7.18-7.7-16.88,2.18-21.72,2.77-.45-4.95,3.8-5.11,4.71-3.04,4.82-1.32,11.56,5.18,11.3l.05.38c-.7.81-1.56,1.21-2.63,1.3-.12.04-.2-.07-.16.17,2.11,2.55,4.85,5.13,7.64,6.75.43,0-.15-.19-.17-.3-.16-.67.68-1.47.94-1.94,1.03-1.42,1.25-4.04,2.97-4.68.29.78-.99,5.07.68,3.08,2.46-1.02,2.81-4.99,5.01-5.98.14,1.48,0,2.83-.78,4.13l1.49-.36c.54-1.06,2.02-4.47,2.8-5.23,1.84-.41-.38,3.7-.33,4.58.54-.58,1.79-1.8,2.51-2.12l-.74-1.17c.34-.96.35-2.08.91-2.96-.05.42,1.84,3.08,2.06,3.46l-.33-2.34c.77-.19,1.46.02,2.23.11-.06-.63-1.34-3.2.17-2.57.47,1.16.76,2.82,1.45,3.68,2.34-3.35,3.03-.64,5.83-2.43,3.15-3.25,3.32.56,5.06-1.08,0-.6-2.85-1.14-3.01-2.03.62-1.17,2.73.89,3.77.62l.29-.99c-.48-.63-4.46-.88-3.12-1.9,1.39-.15,4.21,2.13,3.62-.55-.04-.03-.63.02-.66-.34l.78-.45c-1.39.96-3.01-.19-4.46-.61l-.06-.51,1.63-.55c-.12-.71-.76-.17-1.06-.12-.82.14-1.1-.31-1.31-.31-2.7,1.09-4.91,4.65-7.58,6.12-.44.35-.74,1.06-1.48,1-.62-.05-.53-.38-1.43.03-.63.28-1.02.48-1.72.73-.2.07-.43.31-.55.33-1.91-.85-3.37-.13-4.17,1.75-1.34.16-3.25-.35-3.82,1.27-.16.1-1.19.12-1.52.21-4.01.84-4.14,5.84-6.24,8.27-2.11.9-1.9-2.24-1.27-3.39,1.4-1.49,2.03-3.53,3.81-4.33-.57-1.15-2.14-.33-3.11-.24s-2.04-.25-3.03-.16l2.12-1.01c-.42-1.03-2.38-.15-3.25-.17-.31-.03-2.25-.52-2.44-.66-1.32-1.28,3.75-1.6,4.3-.95,0-.81-1.56-.78-2.06-1.18-.78-1.01-1.49-1.9-2.68-2.45.18-.25.21-.14.41-.08,1.43.88,3.14.99,4.5,2.03-.44-.67-1.24-1.3-1.33-2.18-.09-.15-1.52-1.21-.75-1.03,1.88.33,3.46,2.16,4.99,3.1-2.1-2.42-3.62-5.53-3.68-8.7,1.48,1.85,2.87,4.48,5.91,4.46-1.9-.91-4.35-2.98-4.57-5.13,1.08.44,2.09,1.52,3.24,1.62-1.35-.9-2.69-2.82-3.23-4.24,0-.12.19-.18.33-.11.91,2.04,3.2,3.58,5.41,4.07.04-.91-2.36-1.85-2.96-2.85-.45-1.08-1.66-1.7-1.78-2.89l.22-.12c1.19,1.25,3.68,2.11,5.24,2.24-1.5-.79-4-1.47-4.58-3.18.9.27,2.23.13,3.18.11ZM83.15,16.31l-.44-1.29-1.45.29.84,2.12c.44-.4,1.43-.26,1.28-1-.21-.04-.05.22-.13.31-.05.06-.8.14-.93.35-.21-.14-.13-.23-.08-.43l-.19-.07c.29-.26.74-.48,1.11-.28ZM80.81,16.31h-.38s-.85,1.61-.85,1.61c-.93.64-2.93.49-3.46,1.4,1.28.37,2.54-1.27,3.91-1.28l.78-1.73ZM75.78,19.33c-.67-.44-6.51,1.75-4.11,2.39,1.17-.92,4.01-.61,4.11-2.39ZM70.75,22.02c-.31-.11-.46-.37-.63-.02-.28.12-1.39.27-1.26.73s1.53-.45,1.9-.39c-.01-.1.03-.26,0-.32ZM77.8,22.56l-.22-.28c-.13-.09-2.67,1.06-2.79,1.06,1.05.06,2.04-.43,3.01-.78ZM67.95,22.93c-.41-.13-.7.34-.87.64l1,.33c.15-.26.17-.88-.13-.97ZM76,25.23c.09-1.32-1.01-.99-.33.07l.33-.07ZM78.35,25.57c-.27-.6-1.24-.07-1.79-.11.37.36,1.25-.15,1.79.11ZM79.02,28.14c-.49-.03-.83.34-1.34.22l.22,1.9,1.11-.12v-2ZM79.55,30.85c-1.15-.3-4.34.04-3.72,1.88.25.36,3.67-.45,4.3-.23,0-.24-.49-.04-.56-.11-.04-.04-.13-.94.06-1l.05.5c.35.07-.05-.82-.14-1.03ZM72.33,33.39l-.43.02-.19,1.99.14.21h.82c-.84-.17-.23-1.81-.33-2.22ZM70.76,38.08c-1.04.02-3.05-.25-4.02-.62-.49,2.44-.07,5,1.27,7.12.51,1.63-.2,3.18.8,4.45.78,1.93.06,3.32-.06,5.28,1.08.45,1.58,1.73,1.55,2.71.64.41,2.32,2.34,2.84,2.6,8.56-6.39-2.44-14.13-2.38-21.53ZM42.3,54.82c-5.23-1.1-1.1-3.09-2.34-3.97-5.29,2.5-1.06,4.58,2.34,3.97ZM55.25,63.75c-13.44,1.54-14.46-11.92-21.65,2.18l.33.28c-1.45.39-2.16,1.59-2.68,2.9.05.04,1.09-.62,1.23.06-1.66.9-2.9,2.01-3.48,3.89-.36.62-3.36,4.4-3.1,4.76l3.44.09c1.69-2.85,2.75-6.73,5.49-8.69-1.43,2.37-3.84,7.33-4.81,9.92-1.66-.11-3.89-.28-5.34.57,4.37-.91,7.71,2.54,11.72,3.57-1.11-1.34-3.23-2.09-4.01-3.61l7.58-3.08c-.77-.4-4.64.5-4.14-.85,0,0,11.5-4.29,11.5-4.29-1.76-.83-5.64,1.12-6.92-.83.13-.32,7.48-2.25,7.7-2.41-1.92-.93-4.79-2.12-6.03-3.79,3.16.69,6.19,1.92,9.37,2.45-.86-.54-5.25-1.46-5.36-2.57,2.94.09,5.9,1.07,8.87.56l.28-1.12ZM72.1,83.73l12.28-6.2c-.87-1.13-.83-2.44-1.2-3.71-2.43-5-6.9-10.85-12.48-12.2-3.94.04-7.56,3.05-11.22,4.14,2.54.16,5.61-1.48,8.37-1.45-2.11,2.01-5.69,2.74-8.26,4.24,3.4-.72,6.79-1.54,10.27-1.78-1.69,1.59-4.92,2.48-7.14,3.46l12.39,1.79v.33c-3.35.51-6.78.25-10.16.34l13.12,4.79c-.59,1.49-3.96.08-5.42.56,4.29,3,2.23,2.82-.56,5.69ZM59.71,63.19l-3.22.57-.35,1.32c1.4-.24,2.79-.63,3.57-1.9ZM63.95,106.05c-24.2-1.68-20.58-20.59-5.02-32.31-.98-.54-3.71-2.13-4.97-1.96-5.39,4.19-8.45,10.64-12.96,15.51-2.34,1.16-6.29-3.43-8.47-1.55-.91.86-1.41,2.69-2.09,3.83-2.21,3.57-6.33,5.35-7.85,9.22.34,2.26-.52,4.91-.5,7.26,13.96-.21,27.97.35,41.85,0ZM29.24,82.05c-5.27-5.53-9.74,10.64-11.04,14.28.8.05.93,1.1,1.64.89,2.25-4.23,4.05-9.27,8.83-11.26-.65-.31-2.69.9-3.4.67-.57-.1.12-1,.34-1.33,1.13-1.74,2.17-2.07,3.62-3.25ZM82.16,97.22c-.71-3.28-.28-6.93-.59-10.29-.62-1.08-3.96-3.97-4.22-1.36-.33,3.33,1.68,5.04,2.57,7.92.93,2.22.14,7.55,4.01,5.96-.07-1.07-.47-2.02-.33-3.11-.27.28-.94,1.07-1.44.88ZM18.17,98.65c.09-.08.27-.54.24-.67-.95-1.43-1.93.46-3.11.26.11.61,2.45.75,2.87.42ZM86.05,99.91c.01-.4.06-.83-.28-1.11l-.5.39.78.73ZM18.08,99.91c-3.29-.96-3.98.05-.17.22.22.01.17-.02.17-.22ZM84.72,100.25c-1.03.03-1.94.45-3.01.39l1.05.38,1.96-.77ZM14.06,100.8c.99-.14,2.14.84,3.01.39-.28-.39-2.56-.82-3.01-.39ZM15.85,101.81c-.76-.1-2.15-1.01-2.57,0,.66.01,1.12-.16,1.56.39-2.05,2.34-4.46-.65-5.45,1.55,1.16,1.14,3.88-.07,5.46.3-1.15-1.59.77-1.02,1.01-2.23ZM88.62,101.92c-1.38-.94-2.07.72-2.11,1.78,1.87.13,3.35,1.27,5.29.9.97-.06,2.37.47,3.08-.5-.84-.61-2.62-.4-3.74-.9-.37,0-.47,1-1.27.61l.21-1.21c-1.09-.65-1.24-.16-1.89.66-.21-.52.35-.87.44-1.34ZM14.06,105.38l-5.36-.34c-.2,2.12,4.25.8,5.36.34ZM94.43,105.94c-1.39.17-4.94-1.42-5.2.45,1.68.25,3.52.34,5.19-.13v-.33Z"/>
    <path d="M97.95,27.43c-.06.11-.43.37-.23.6.69-1.52,7.95-4.92,4.89-1.13-.6.44-1.75.57-1.6,1.47.68.06,4.44-2,3.88.14-.33,1.11-4.02,1.52-3.78,3.04.08.53,1.7.44,2.17.52,1.8.29,1.16,1.62-.32,1.77-1.55-.05-3.26-.55-4.4.73-.52.27-1.86.47-2.05.86-.12.93-.89,1.32-1.81,1.2-.87-.33-1.35-.28-2.2.03-.47.1-.91-.03-1.32.47,1.26.7-2.38,1.15-2.9.73-.48,1.8-4.58.98-5.92,1,.1-1.75.26-3.79.23-5.53-.03-.41-.45-.46-.01-.55-.37-.8,0-1.46-.77-2.13-.45-.39-1.09-.25-.55-1.15.72-.15,2.23.55,2.62,1.08.39-.14,2.25-1.29,3.08-.39,1.04.08,2.1.76,2.85,1.28.35.07,1.41-.4,2.09-.31.71.89,2.64-3.46,3.25-4.02.42-.57,1.08-1.12,1.38-1.83,3.48-2.38,3.53-.47,1.41,2.11ZM97.96,26.32c2.05-2.29.39-2.26-1.24-.74-1.51,1.45-2.96,5.11-4.53,6.3-3.12,1.03-1.49,4.63,1.51,3.97.89.1,2.18.72,2.38-.64.14-.96-1.63-1.07-1.49-1.71.54-.63.65-1.17.53-2.03.41-1.03,1.79-4.55,2.84-5.14ZM102.76,26.1l.13-.45c-1.18-.83-5.13,2.15-5.35,3.39.34.38,4.87-2.78,5.21-2.93ZM104.13,27.82c-1.28.36-4.28.56-4.56,2.21,1.21.41,3.52-.98,4.67-1.45l-.11-.76ZM86.61,30.6l-2.1.58-.13,1.32c.57-.65,1.09-1.29,1.96-1.56.15-.09.33-.09.27-.34ZM88.55,33.43c2.93-2.13-.86-1.9-.37.63.22-.08.21-.43.37-.63ZM103.43,32.43c-.51-.08-4.41-.95-3.28.32.41.23,4.82.96,3.28-.32Z"/>
    <path d="M98.22,7.5c.05.2-.26.05-.22.17.1.34.4-.08.56,0,.28.2.18.34.11.62l-.5-.33-.28.67c.49-.3,1.16.53,1.33-.17.12-.07.4.23.34-.16h.11c-.05.31.21.23.45.22.12.22-.44.76,0,.67l-.17.22-.28-.22-.11.22-.23-.28.22-.17-.28-.11-.06.45-.33-.22c-.14.49.22,1.41-.41,1.68-.35.04-.8-.36-1.02.1-.16.11-.34-.18-.13.35-.32-.11-.51-.46-.45.11l-.12-.33c-.37,0-.93.29-.66.67-.24.03-.24,0-.22-.22l-.39.23-.28-.23.22.44-.89.11c.26.58-.28.41-.22.89h-.33s.18-.65-.11-.67c.07.67-.04,1.15-.77.87l-.24-.31v.55s-.28.12-.28.12c-.31-.65-.54.05-.68.09-.38.13-.98-.24-.94.46l-.51-.22-.16.22c-.03-.28-.16-.39-.45-.33l.11.44-.28-.22-.17.45-.89-.33.11.45-.33-.22-.07.22c-1.33.18-3.14,1.11-4.51,1.11-.54-1.1,1.88-1.1,2.26-1.86.05-.03.32.11.31-.26l.11.22.28-.33.22.22.17-.22-.22-.22.44.33v-.56c.28.16.78-.01.78-.33l.17.22.17-.33.28.22.41-.53.2.08-.11-.33.27.21.4-.1-.22-.17.39-.15.28.32-.11-.56.32.11.25-.54.38.1.05-.33c.5-.03-.07.62.55.44l.12-.55.38.12c.15-.48.73-.01,1.02-.45l.11.22.28-.11-.12-.27.23-.07c.05-.2-.19-.07-.22-.11-.2-.25.6-.65.45.28l.22.06c.14-.53,1.02-.44.91-1.1h.32s-.22-.35-.22-.35l.44.05-.11.39.78-.22c-.14-.19-.06-.58.18-.64.19-.05.27.31.38-.36l.11.45h.56c.03-.53.58-.41.11-1.12l.45.11ZM98.11,8.95c-.38-.07-.13.19-.16.45-.03.21-.21.38-.06.66l.22-.11.22.45.23-.28-.55-.29.1-.88ZM94.09,11.85h-.49c-.09.27-.12.36-.4.5l.34.06-.11.56.32-.13.02-.87.32-.12Z"/>
    <path d="M41.17,35.92c.33-.44,1.36-.29.88.51-.82,1.97-2.95,2.03-4.21,3.71-.11.14-.09.7-.56.45-1.23-2.18,1.97-4.36,3.89-4.67Z"/>
    <path d="M52.32,10.59c-.83.56-1.74,0-2.62-.29-.22-.04-.58.22-.53-.13.09-.62,1.73-.39,1.62-.83l-1.4-.73-.07.32-.99.24c.02-1.61,3.03-1.38,4.05-.98.84.34.24,1.9-.06,2.4Z"/>
    <path d="M42.86,10.28c-3.19-1.46-2.62,3.27-.45,4.3.01.26-.78,0-.89-.06-.14.18.39.9.56,1.06-1.28.28-1.62-2.23-1.98-3.04-.29-1.4.14-3.18,1.92-2.92.19.03,1.13.36.84.66Z"/>
    <path d="M49.56,35.96c-.22,1.3-1.34,3.77-2.34,4.46.51-1.4.27-4.53,2.34-4.46Z"/>
    <path d="M43.75,13.86c-.7.34-2.04-1.05-1.98-1.6.03-.25.54-.56.31-.69-.75-.31-.99.33-.78.95-1.46-.91.5-2.93,1.46-1.18.37.63-.67,1.09.21,1.91.28.26.77.21.79.61Z"/>
    <path d="M40.72,15.77c.1.21-.03,2.06-.43,1.77-.18-.53-.43-1-.34-1.59.22-.23.48-.36.77-.17Z"/>
    <path d="M39.4,20.22c-.24-.56-.66-1.54-.05-2.01.35,0,.07,1.73.05,2.01Z"/>
    <path d="M81.81,16.2c-.19-.28,1.1-.67,1.11-.39-.26.34-.72.37-1.11.39Z"/>
  </g>
  <g>
    <path class="st0" d="M2.46,128.77c-1.33-.45-2.15-.92-2.46-1.41v-.22c1.37-2.62,5.3-1.8,7.04-.44h.44c2.79-2.04,4.18-3.8,4.18-5.28-.29.15-2.14,1.07-5.56,2.76l.05.11c-1.35.49-1.82.67-2.42.66v-.44c8.36-1.41,14.13-13.6,18.03-15.18,3.49,2.41-7.65,8.25-9.02,14.3-.56.71-4.32,3.71-4.62,4.4,3.86,2,2.78,1.3,7.42-2.4l.7.5c-2.32,2.7-4.7,4.38-8.56,3.88-1.03-.88-1.84-1.4-2.42-1.54-.26.15-.94.37-2.05.67l-.77-.34ZM2.41,128.15c.95.22,1.86.13,2.87-.14.37-.21-3.57-3.12-4.4-.88l1.05.93.48.08ZM15.62,117.45h.22c3.91-3.28,5.6-4.93,5.49-6.82h-.44c-1.89,1.61-3.65,3.88-5.28,6.82Z"/>
    <path class="st0" d="M20.38,121.54c.17.23.3.7.24.99-1.03,1.03-2.26,2.66-3.68,4.91,2.14.76,3.13-1.58,7.12-5.16.17-.02,1.58-.28,1.72-.24v.5c-2.62,2.78-3.93,4.49-3.93,5.15,1.24-.1,2.32-.83,3.44-1.84l.24.49c-.5,1.01-2.38,2.55-4.48,2.77-.47-.29-1.03-.84-1.66-1.66,0,.14-.82.72-2.46,1.72-5.46.73-.49-7.18,3.44-7.61Z"/>
    <path class="st0" d="M31.96,127.36c-2.74,1.46-7.16,3.94-7.16,0-.25-1.39,3.32-5.03,7.46-5.59,1.57.59,0,3.65-1.41,3.26-.6-4.14-2.58-.79-3.49,3.03,1.86.07,2.41-.02,4.75-1.44.8-.67.94-.83,1.5-.77v.24c-.46.56-1,.99-1.64,1.29l-.02-.02Z"/>
    <path class="st0" d="M40.38,121.75c.43.51.63.86.63,1.15,1.14-.76,1.85-1.15,2.14-1.15l.43.69-3.47,4.86-.02.46c1.37.52,3.39-2.6,4.79-2.73-.2.91-.94,2.02-2.27,2.53-.16.45-1.33.9-3.51,1.36-.59-.47-.87-.91-.86-1.39h-.47c-2.35,2.11-5.56,2.52-5.52-.46,3.05-3.55,5.76-5.32,8.13-5.32ZM34.52,127.98c.14.31.2.51.19.7,3.82-2.08,5.47-3.47,5.4-6.25-1.43,0-2.8,1.16-4.1,3.48-.27,0-.77.69-1.49,2.07Z"/>
    <path class="st0" d="M69.75,108.07l1.07.06-.04,1.06c-5.22,7.08-8.05,11.93-8.5,14.56,4.53-3.12,8.96-7.72,13.29-13.79,1.12-.09,1.78.66,1.54,1.68-4.04,2.8-7.06,8-9.06,15.6.45,0,1.82-.85,4.16-2.57.7,2.92-8.75,7.5-7.9,2.38l3.95-6.22.02-.53c-4.13,2.54-7.64,5.8-10.52,9.77-.81.04-1.66-.18-1.57-1.15,0,0,4.64-9.51,4.64-9.51l-11.26,9.56-.03-.04c-1.14.01-5.62.78-6.09-1.18-.48-3.03,1.42-4.41,4.94-4.12.17.34.63,1.22.49,1.62l-1.68,2.06-.02.54,2.14.24c11.46-9.83,18.27-16.5,20.43-20Z"/>
    <path class="st0" d="M78.47,121.75c.43.51.63.86.63,1.15,1.14-.76,1.85-1.15,2.14-1.15l.43.69-3.47,4.86-.02.46c1.37.32,3.18-2.05,4.69-2.85.24.85-.93,2.15-2.17,2.65-.16.45-1.33.9-3.51,1.36-.59-.47-.87-.91-.86-1.39h-.47c-2.35,2.11-5.56,2.52-5.53-.46,3.05-3.55,5.76-5.32,8.13-5.32ZM72.61,127.98c.14.31.2.51.19.7,3.82-2.08,5.47-3.47,5.4-6.25-1.43,0-2.8,1.16-4.1,3.48-.27,0-.77.69-1.49,2.07Z"/>
    <path class="st0" d="M84.04,121.02c1.24-.5,1.44,1.47,1.57,2.29,1.09-.2.69.82.6,1.39-1.14,1.27-1.71,1.99-1.43,3.03.9-.05,1.79-.66,3.78-2.13l.15.1c-2.39,5.02-10.32,4.52-4.17-1.27l-.67-1-2.21,3.34-.42-.6c.82-1.73,2.13-3.22,2.8-5.14Z"/>
    <path class="st0" d="M93.28,121.51c.62.09.38.78.39,1.18-1.94,2.53-2.8,3.7-2.81,4.68,1.19.1,2.14-.59,3.79-2.18l.28.2-.05.69c-.75.83-2.2,1.79-4.35,2.89-1.84.11-3.18-.88-1.24-2.61l.02-.23c-.72.48-1.1.78-1.21.7l-.5-.41c2.09-2.1,3.98-3.74,5.69-4.91ZM97.4,114.88c.54,1.09-.01,1.85-1.39,2.2-1.1-.6.58-2.47,1.39-2.2Z"/>
    <path class="st0" d="M101.57,121.75c.43.51.63.86.63,1.15,1.14-.76,1.85-1.15,2.14-1.15l.43.69-3.47,4.86-.02.46c1.37.32,3.18-2.05,4.69-2.85.24.85-.93,2.15-2.17,2.65-.16.45-1.33.9-3.51,1.36-.59-.47-.87-.91-.86-1.39h-.47c-2.35,2.11-5.56,2.52-5.53-.46,3.05-3.55,5.76-5.32,8.13-5.32ZM95.7,127.98c.14.31.2.51.19.7,3.82-2.08,5.47-3.47,5.4-6.25-1.43,0-2.8,1.16-4.1,3.48-.27,0-.77.69-1.49,2.07Z"/>
  </g>
  <g>
    <path class="st0" d="M43.53,138.39c-.82.03-1.67-.36-1.69-1.24h.29c.72,2.45,4.62-.34,1.12-.83-3.4-.74.96-3.79,1.62-1.08h-.29c-.2-1.13-2.68-1.02-2.25.26.43.65,1.46.46,2.1.83,1.2.62.25,2.22-.92,2.07Z"/>
    <path class="st0" d="M48.7,134.53h-1.43v3.78h-.3v-3.78h-1.41v-.3h3.14v.3Z"/>
    <path class="st0" d="M50.99,138.39c-2.21.17-1.42-2.84-1.56-4.15h.3c.17,1.1-.65,4.03,1.26,3.85,1.91.19,1.09-2.76,1.26-3.85h.3c-.13,1.31.64,4.33-1.56,4.15Z"/>
    <path class="st0" d="M56.9,136.24c.13,2.03-1.72,2.19-3.29,2.07v-4.08c1.53-.1,3.42,0,3.29,2ZM56.58,136.24c.18-1.63-1.42-1.83-2.68-1.71v3.48c1.3.14,2.86-.13,2.68-1.77Z"/>
    <path class="st0" d="M58.21,138.31h-.3v-4.08h.3v4.08Z"/>
    <path class="st0" d="M61.12,134.16c2.55-.08,2.54,4.3,0,4.23-2.54.07-2.55-4.31,0-4.23ZM61.12,138.09c2.14.09,2.16-3.72.01-3.63-2.16-.1-2.16,3.72-.01,3.63Z"/>
  </g>
</svg>