<?xml version="1.0" encoding="UTF-8"?>
<svg id="Livello_1" xmlns="http://www.w3.org/2000/svg" version="1.1" viewBox="0 0 105.99 30.32">
  <!-- Generator: Adobe Illustrator 30.2.1, SVG Export Plug-In . SVG Version: 2.1.1 Build 1)  -->
  <defs>
    <style>
      .st0 {
        fill: #1d1d1b;
      }
    </style>
  </defs>
  <g>
    <path class="st0" d="M2.46,20.69c-1.33-.45-2.15-.92-2.46-1.41v-.22c1.37-2.62,5.3-1.8,7.04-.44h.44c2.79-2.04,4.18-3.8,4.18-5.28-.29.15-2.14,1.07-5.56,2.76l.05.11c-1.35.49-1.82.67-2.42.66v-.44C12.1,15,17.88,2.81,21.78,1.24c3.49,2.41-7.65,8.25-9.02,14.3-.56.71-4.32,3.71-4.62,4.4,3.86,2,2.78,1.3,7.42-2.4l.7.5c-2.32,2.7-4.7,4.38-8.56,3.88-1.03-.88-1.84-1.4-2.42-1.54-.26.15-.94.37-2.05.67l-.77-.34ZM2.41,20.08c.95.22,1.86.13,2.87-.14.37-.21-3.57-3.12-4.4-.88l1.05.93.48.08ZM15.62,9.38h.22c3.91-3.28,5.6-4.93,5.49-6.82h-.44c-1.89,1.61-3.65,3.88-5.28,6.82Z"/>
    <path class="st0" d="M20.38,13.47c.17.23.3.7.24.99-1.03,1.03-2.26,2.66-3.68,4.91,2.14.76,3.13-1.58,7.12-5.16.17-.02,1.58-.28,1.72-.24v.5c-2.62,2.78-3.93,4.49-3.93,5.15,1.24-.1,2.32-.83,3.44-1.84l.24.49c-.5,1.01-2.38,2.55-4.48,2.77-.47-.29-1.03-.84-1.66-1.66,0,.14-.82.72-2.46,1.72-5.46.73-.49-7.18,3.44-7.61Z"/>
    <path class="st0" d="M31.96,19.29c-2.74,1.46-7.16,3.94-7.16,0-.25-1.39,3.32-5.03,7.46-5.59,1.57.59,0,3.65-1.41,3.26-.6-4.14-2.58-.79-3.49,3.03,1.86.07,2.41-.02,4.75-1.44.8-.67.94-.83,1.5-.77v.24c-.46.56-1,.99-1.64,1.29l-.02-.02Z"/>
    <path class="st0" d="M40.38,13.67c.43.51.63.86.63,1.15,1.14-.76,1.85-1.15,2.14-1.15l.43.69-3.47,4.86-.02.46c1.37.52,3.39-2.6,4.79-2.73-.2.91-.94,2.02-2.27,2.53-.16.45-1.33.9-3.51,1.36-.59-.47-.87-.91-.86-1.39h-.47c-2.35,2.11-5.56,2.52-5.52-.46,3.05-3.55,5.76-5.32,8.13-5.32ZM34.52,19.91c.14.31.2.51.19.7,3.82-2.08,5.47-3.47,5.4-6.25-1.43,0-2.8,1.16-4.1,3.48-.27,0-.77.69-1.49,2.07Z"/>
    <path class="st0" d="M69.75,0l1.07.06-.04,1.06c-5.22,7.08-8.05,11.93-8.5,14.56,4.53-3.12,8.96-7.72,13.29-13.79,1.12-.09,1.78.66,1.54,1.68-4.04,2.8-7.06,8-9.06,15.6.45,0,1.82-.85,4.16-2.57.7,2.93-8.75,7.5-7.9,2.38l3.95-6.22.02-.53c-4.13,2.54-7.64,5.8-10.52,9.77-.81.04-1.66-.18-1.57-1.15,0,0,4.64-9.51,4.64-9.51l-11.26,9.56-.03-.04c-1.14.01-5.62.78-6.09-1.18-.48-3.03,1.42-4.41,4.94-4.12.17.34.63,1.22.49,1.62l-1.68,2.06-.02.54,2.14.24C60.77,10.17,67.58,3.5,69.75,0Z"/>
    <path class="st0" d="M78.47,13.67c.43.51.63.86.63,1.15,1.14-.76,1.85-1.15,2.14-1.15l.43.69-3.47,4.86-.02.46c1.37.32,3.18-2.05,4.69-2.85.24.85-.93,2.15-2.17,2.65-.16.45-1.33.9-3.51,1.36-.59-.47-.87-.91-.86-1.39h-.47c-2.35,2.11-5.56,2.52-5.53-.46,3.05-3.55,5.76-5.32,8.13-5.32ZM72.61,19.91c.14.31.2.51.19.7,3.82-2.08,5.47-3.47,5.4-6.25-1.43,0-2.8,1.16-4.1,3.48-.27,0-.77.69-1.49,2.07Z"/>
    <path class="st0" d="M84.04,12.95c1.24-.5,1.44,1.47,1.57,2.29,1.09-.2.69.82.6,1.39-1.14,1.27-1.71,1.99-1.43,3.03.9-.05,1.79-.66,3.78-2.13l.15.1c-2.39,5.02-10.32,4.52-4.17-1.27l-.67-1-2.21,3.34-.42-.6c.82-1.73,2.13-3.22,2.8-5.14Z"/>
    <path class="st0" d="M93.28,13.44c.62.09.38.78.39,1.18-1.94,2.53-2.8,3.7-2.81,4.68,1.19.1,2.14-.59,3.79-2.18l.28.2-.05.69c-.75.83-2.2,1.79-4.35,2.89-1.84.11-3.18-.88-1.24-2.61l.02-.23c-.72.48-1.1.78-1.21.7l-.5-.41c2.09-2.1,3.98-3.74,5.69-4.91ZM97.4,6.8c.54,1.09-.01,1.85-1.39,2.2-1.1-.6.58-2.47,1.39-2.2Z"/>
    <path class="st0" d="M101.57,13.67c.43.51.63.86.63,1.15,1.14-.76,1.85-1.15,2.14-1.15l.43.69-3.47,4.86-.02.46c1.37.32,3.18-2.05,4.69-2.85.24.85-.93,2.15-2.17,2.65-.16.45-1.33.9-3.51,1.36-.59-.47-.87-.91-.86-1.39h-.47c-2.35,2.11-5.56,2.52-5.53-.46,3.05-3.55,5.76-5.32,8.13-5.32ZM95.7,19.91c.14.31.2.51.19.7,3.82-2.08,5.47-3.47,5.4-6.25-1.43,0-2.8,1.16-4.1,3.48-.27,0-.77.69-1.49,2.07Z"/>
  </g>
  <g>
    <path class="st0" d="M43.53,30.31c-.82.03-1.67-.36-1.69-1.24h.29c.72,2.45,4.62-.34,1.12-.83-3.4-.74.96-3.79,1.62-1.08h-.29c-.2-1.13-2.68-1.02-2.25.26.43.65,1.46.46,2.1.83,1.2.62.25,2.22-.92,2.07Z"/>
    <path class="st0" d="M48.7,26.46h-1.43v3.78h-.3v-3.78h-1.41v-.3h3.14v.3Z"/>
    <path class="st0" d="M50.99,30.31c-2.21.17-1.42-2.84-1.56-4.15h.3c.17,1.1-.65,4.03,1.26,3.85,1.91.19,1.09-2.76,1.26-3.85h.3c-.13,1.31.64,4.33-1.56,4.15Z"/>
    <path class="st0" d="M56.9,28.17c.13,2.03-1.72,2.19-3.29,2.07v-4.08c1.53-.1,3.42,0,3.29,2ZM56.58,28.17c.18-1.63-1.42-1.83-2.68-1.71v3.48c1.3.14,2.86-.13,2.68-1.77Z"/>
    <path class="st0" d="M58.21,30.24h-.3v-4.08h.3v4.08Z"/>
    <path class="st0" d="M61.12,26.09c2.55-.08,2.54,4.3,0,4.23-2.54.07-2.55-4.31,0-4.23ZM61.12,30.02c2.14.09,2.16-3.72.01-3.63-2.16-.1-2.16,3.72-.01,3.63Z"/>
  </g>
</svg>